<svg width="249" height="87" viewBox="0 0 249 87" fill="none" xmlns="http://www.w3.org/2000/svg">
<path d="M35.245 86.04C35.1597 86.04 35.0743 85.9973 34.989 85.912C34.9037 85.8267 34.8183 85.784 34.733 85.784C34.6477 85.784 34.2637 85.6133 33.581 85.272C32.9837 84.9307 32.6423 84.76 32.557 84.76C32.3863 84.8453 32.2583 84.888 32.173 84.888C32.3437 84.632 32.301 84.504 32.045 84.504C31.8743 84.504 31.7463 84.5467 31.661 84.632H31.405C31.5757 84.632 31.021 84.3333 29.741 83.736L29.485 83.352L27.565 82.2C27.4797 82.1147 27.437 81.9867 27.437 81.816C26.8397 81.56 26.0717 80.8347 25.133 79.64C24.365 79.2133 23.8957 78.488 23.725 77.464C23.469 77.3787 23.1703 77.08 22.829 76.568V76.312C22.9143 76.312 22.957 76.2693 22.957 76.184C22.8717 76.184 22.7863 76.0987 22.701 75.928C22.701 75.7573 22.5303 75.3307 22.189 74.648L21.677 74.008L21.421 73.88C21.5063 73.7947 21.549 73.7093 21.549 73.624C21.549 73.4533 21.5917 73.3253 21.677 73.24C21.677 73.1547 21.5063 73.112 21.165 73.112L20.781 68.888C20.781 68.8027 20.4823 68.76 19.885 68.76C19.885 68.504 19.7997 68.376 19.629 68.376C19.5437 68.376 19.501 68.4187 19.501 68.504H19.373C19.2877 68.504 18.989 68.4187 18.477 68.248C17.965 67.992 17.581 67.864 17.325 67.864L17.197 67.992C17.3677 68.1627 17.581 68.248 17.837 68.248C17.837 68.3333 17.9223 68.4613 18.093 68.632C18.0077 68.888 17.7943 69.016 17.453 69.016C17.3677 69.016 17.2397 68.9733 17.069 68.888C16.8983 68.7173 16.7703 68.632 16.685 68.632C16.5997 68.632 16.557 68.7173 16.557 68.888L16.301 68.504C15.277 68.0773 13.9117 67.352 12.205 66.328C11.3517 65.7307 10.8823 65.432 10.797 65.432C10.7117 65.432 10.6263 65.4747 10.541 65.56C10.541 65.3893 10.2423 64.9627 9.645 64.28C9.04767 63.5973 8.749 63.128 8.749 62.872C8.749 62.2747 8.91967 61.6773 9.261 61.08C9.68767 60.9947 9.85833 60.952 9.773 60.952C9.773 60.8667 9.85833 60.824 10.029 60.824H10.285C10.3703 60.9093 10.4557 60.952 10.541 60.952C10.6263 60.952 10.7543 60.8667 10.925 60.696L11.181 61.08L11.437 60.824C11.5223 60.9093 11.7783 61.208 12.205 61.72C12.6317 62.232 12.9303 62.488 13.101 62.488C12.845 62.488 13.9117 63.256 16.301 64.792L19.629 66.456L20.013 66.84C20.0983 66.84 20.141 66.7973 20.141 66.712C20.141 66.6267 20.1837 66.584 20.269 66.584L20.653 66.968C20.7383 66.5413 20.8663 66.0293 21.037 65.432C21.2077 64.8347 21.3783 64.1093 21.549 63.256C21.8903 64.28 22.0183 65.0907 21.933 65.688L22.189 66.584V67.48C22.2743 67.8213 22.4023 67.992 22.573 67.992C22.6583 67.992 22.701 67.9493 22.701 67.864H22.829C22.829 67.864 23.0423 67.9493 23.469 68.12C23.8957 68.2907 24.1517 68.4187 24.237 68.504C24.4077 68.5893 24.621 68.7173 24.877 68.888C25.2183 68.9733 25.7303 69.1013 26.413 69.272L27.949 70.04C27.8637 70.1253 27.8637 70.2107 27.949 70.296C28.0343 70.2107 28.2477 70.168 28.589 70.168C28.845 70.168 30.3383 70.7227 33.069 71.832C33.4957 72.0027 33.6663 72.1307 33.581 72.216C33.581 72.3013 33.6663 72.344 33.837 72.344H33.965C33.965 72.2587 34.0077 72.216 34.093 72.216L35.117 72.472L35.373 72.728C35.5437 72.728 35.7143 72.728 35.885 72.728C36.141 72.728 36.4397 72.7707 36.781 72.856C37.1223 73.1973 37.3783 73.368 37.549 73.368C37.6343 73.368 37.677 73.3253 37.677 73.24C37.5917 73.1547 37.5917 73.112 37.677 73.112C37.7623 73.112 37.9757 73.24 38.317 73.496C38.6583 73.6667 38.8717 73.752 38.957 73.752C39.0423 73.752 39.085 73.7093 39.085 73.624C39.085 73.5387 39.1703 73.496 39.341 73.496C39.4263 73.496 39.5117 73.5813 39.597 73.752C39.7677 73.9227 39.8957 74.008 39.981 74.008C40.493 74.008 41.0903 74.136 41.773 74.392C42.4557 74.648 42.797 74.776 42.797 74.776C42.9677 74.776 43.1383 74.6907 43.309 74.52C43.309 74.8613 43.7783 75.032 44.717 75.032H44.973C44.973 74.9467 45.0157 74.904 45.101 74.904C45.1863 74.904 45.2717 74.9893 45.357 75.16C45.4423 75.3307 45.5277 75.416 45.613 75.416C45.869 75.416 46.125 75.2453 46.381 74.904C46.2957 75.2453 46.509 75.416 47.021 75.416H47.533C47.8743 75.416 48.173 75.0747 48.429 74.392C48.8557 74.0507 49.325 73.496 49.837 72.728C50.4343 71.8747 51.117 70.8507 51.885 69.656L53.037 68.376C53.2077 67.864 53.549 67.352 54.061 66.84C54.2317 66.6693 54.2317 66.5413 54.061 66.456C54.6583 66.0293 55.0423 65.6027 55.213 65.176C55.3837 64.664 55.725 63.9387 56.237 63V63.64C56.6637 63.4693 56.7917 63.2133 56.621 62.872L57.005 63.128C57.005 63.384 56.9197 63.768 56.749 64.28C56.0663 65.3893 55.6397 65.8587 55.469 65.688C55.3837 65.8587 55.341 66.2427 55.341 66.84C55.1703 67.0107 54.957 67.224 54.701 67.48C54.445 67.736 54.3597 67.992 54.445 68.248C54.1037 68.5893 53.8477 68.9307 53.677 69.272C53.5917 69.528 53.037 70.424 52.013 71.96C51.5863 72.3013 51.117 72.8133 50.605 73.496C50.605 73.5813 50.6477 73.6667 50.733 73.752L53.037 71.576V71.32C53.037 71.1493 53.037 71.0213 53.037 70.936C53.1223 70.7653 53.2077 70.552 53.293 70.296C53.9757 69.9547 54.5303 69.4427 54.957 68.76C55.3837 68.0773 55.7677 67.3947 56.109 66.712C56.4503 66.3707 56.877 65.688 57.389 64.664L57.901 64.408V63.896C58.157 63.896 58.3277 63.384 58.413 62.36C58.413 62.1893 58.669 61.6773 59.181 60.824C59.181 60.824 59.3517 60.7387 59.693 60.568C59.693 60.3973 59.7357 60.2267 59.821 60.056C59.6503 59.6293 59.693 59.1173 59.949 58.52L60.205 58.904L61.101 57.624C60.9303 57.4533 60.7597 57.368 60.589 57.368C60.333 57.368 60.205 57.4107 60.205 57.496L59.565 56.216C59.6503 56.216 59.9917 55.9173 60.589 55.32C60.589 55.1493 60.6743 54.8933 60.845 54.552C60.7597 54.1253 60.7597 53.8693 60.845 53.784C61.0157 53.6987 61.1437 53.5707 61.229 53.4C61.3997 53.2293 61.5703 53.0587 61.741 52.888C62.1677 51.9493 62.637 50.84 63.149 49.56C63.7463 48.28 64.4717 46.8293 65.325 45.208C65.4103 45.208 65.5383 45.1227 65.709 44.952C65.8797 44.2693 66.0077 43.8 66.093 43.544C66.2637 43.2027 66.349 43.032 66.349 43.032C66.4343 43.1173 66.5197 43.16 66.605 43.16C66.7757 42.648 67.0317 42.0507 67.373 41.368C67.7997 40.6 68.2263 39.7467 68.653 38.808C68.653 38.808 68.8237 38.8933 69.165 39.064C69.165 39.1493 69.165 39.32 69.165 39.576C69.165 39.7467 69.1223 39.96 69.037 40.216L69.165 40.472C69.2503 40.3867 69.293 40.2587 69.293 40.088C69.293 39.9173 69.3357 39.7467 69.421 39.576C70.0183 39.4907 70.3597 39.0213 70.445 38.168C70.445 38.2533 70.4877 38.296 70.573 38.296V37.144C70.9143 37.144 71.1277 36.9733 71.213 36.632L70.061 36.376V35.48C70.061 35.3947 70.061 35.352 70.061 35.352C70.1463 35.2667 70.2317 35.0533 70.317 34.712C70.317 34.6267 70.2743 34.5413 70.189 34.456C70.2743 34.3707 70.3597 34.3707 70.445 34.456C70.701 34.2853 70.957 33.9013 71.213 33.304C71.213 33.304 71.4263 32.9627 71.853 32.28C71.853 32.1093 71.9383 31.8533 72.109 31.512C72.365 31.0853 72.7063 30.2747 73.133 29.08C73.645 28.3973 74.029 27.7147 74.285 27.032L74.669 26.648L74.925 25.624L76.461 23.448C76.6317 23.2773 76.6317 23.1493 76.461 23.064C77.3997 22.552 77.9543 21.656 78.125 20.376C78.2957 20.2053 78.4663 20.0347 78.637 19.864C78.8077 19.6933 78.893 19.3947 78.893 18.968C78.9783 18.968 79.0637 19.0107 79.149 19.096C79.405 18.7547 79.661 18.4133 79.917 18.072C80.173 17.7307 80.3863 17.3893 80.557 17.048C80.301 16.792 80.1303 16.664 80.045 16.664C79.8743 16.664 79.7463 16.7067 79.661 16.792H79.277C79.1063 16.792 79.0637 16.7493 79.149 16.664C79.2343 16.5787 79.2343 16.536 79.149 16.536C78.9783 16.536 78.8077 16.5787 78.637 16.664H78.125C78.0397 16.664 77.997 16.6213 77.997 16.536H77.357C77.1863 16.536 77.0583 16.4933 76.973 16.408C76.8877 16.2373 76.8023 16.152 76.717 16.152H76.589C76.589 16.2373 76.5463 16.28 76.461 16.28C76.5463 16.28 76.2903 16.1093 75.693 15.768L75.437 16.024L73.261 15.384H73.133C73.0477 15.4693 72.9623 15.512 72.877 15.512C72.7917 15.512 72.4077 15.384 71.725 15.128C71.0423 14.872 70.6583 14.744 70.573 14.744C70.4877 14.744 70.445 14.7867 70.445 14.872H70.317C69.9757 14.616 69.805 14.488 69.805 14.488C69.8903 14.4027 69.677 14.3173 69.165 14.232C68.653 14.0613 67.373 13.8053 65.325 13.464C64.9837 13.5493 64.7277 13.5493 64.557 13.464C64.301 13.3787 63.9597 13.2933 63.533 13.208C63.1917 13.0373 62.6797 12.9093 61.997 12.824L61.869 12.696C61.6983 12.5253 61.3997 12.5253 60.973 12.696L60.717 12.568C60.6317 12.568 60.589 12.5253 60.589 12.44H60.333C60.2477 12.44 60.2477 12.4827 60.333 12.568H60.205C60.2903 12.568 60.077 12.5253 59.565 12.44C59.053 12.2693 58.541 12.1413 58.029 12.056C57.6023 11.9707 57.4317 11.928 57.517 11.928C57.261 11.7573 57.0477 11.7573 56.877 11.928C56.5357 11.7573 56.365 11.672 56.365 11.672C56.2797 11.672 56.1943 11.7147 56.109 11.8C56.109 11.8853 56.0663 11.928 55.981 11.928C56.0663 11.928 55.9383 11.8427 55.597 11.672C55.341 11.416 54.9143 11.288 54.317 11.288C54.2317 11.288 54.189 11.3307 54.189 11.416C54.189 11.5013 54.1037 11.544 53.933 11.544C53.8477 11.544 53.805 11.5013 53.805 11.416C53.805 11.3307 53.7623 11.288 53.677 11.288C53.5917 11.288 53.5063 11.3307 53.421 11.416C53.421 11.5013 53.3783 11.544 53.293 11.544C53.2077 11.544 53.165 11.5013 53.165 11.416C53.2503 11.3307 53.2503 11.288 53.165 11.288C52.9943 11.288 52.909 11.3307 52.909 11.416L51.501 10.776L51.245 11.032C51.245 11.032 51.117 10.904 50.861 10.648L50.605 10.904C50.4343 10.7333 50.3063 10.6907 50.221 10.776L49.965 10.648C49.709 10.4773 49.2397 10.3493 48.557 10.264C47.9597 10.0933 47.6183 10.008 47.533 10.008C47.533 10.008 47.3623 10.136 47.021 10.392C46.9357 10.0507 46.7223 9.88 46.381 9.88C46.2957 9.88 46.253 9.92266 46.253 10.008H46.125C46.2957 10.008 46.2103 9.92266 45.869 9.752L45.741 9.88L43.053 9.24C42.7117 9.24 42.3277 9.24 41.901 9.24C41.4743 9.15467 40.9623 9.06933 40.365 8.98399C40.5357 8.81333 40.5357 8.728 40.365 8.728C40.1943 8.728 40.0663 8.77066 39.981 8.856H39.597C39.5117 8.856 39.469 8.81333 39.469 8.728H39.341L38.957 8.98399L38.701 8.728C38.6157 8.728 38.5303 8.77066 38.445 8.856C38.3597 8.94133 38.2743 8.98399 38.189 8.98399L36.397 8.472C36.2263 8.472 36.0983 8.51467 36.013 8.6H34.989C34.8183 8.6 34.3917 8.55733 33.709 8.472C33.1117 8.38666 32.7703 8.34399 32.685 8.34399C32.5997 8.34399 32.557 8.38666 32.557 8.472C32.6423 8.55733 32.6423 8.6 32.557 8.6C32.4717 8.6 32.301 8.55733 32.045 8.472C31.789 8.30133 31.533 8.216 31.277 8.216H30.893C30.7223 8.30133 30.5517 8.34399 30.381 8.34399C30.637 8.34399 30.4237 8.13066 29.741 7.70399C29.5703 7.87466 29.485 8.088 29.485 8.34399L28.973 8.088H28.205C27.949 8.00267 27.7357 7.96 27.565 7.96C27.4797 7.96 27.437 8.00267 27.437 8.088C27.437 8.17333 27.3517 8.216 27.181 8.216C27.0957 8.216 26.925 8.13066 26.669 7.96C26.4983 7.78933 26.3703 7.70399 26.285 7.70399C26.1997 7.70399 26.1143 7.78933 26.029 7.96C26.029 8.04533 25.9437 8.04533 25.773 7.96L24.365 7.70399C24.2797 7.70399 24.2797 7.74666 24.365 7.83199C24.365 7.91733 24.3223 7.96 24.237 7.96C24.1517 7.96 24.109 7.91733 24.109 7.83199C24.109 7.74666 24.0237 7.70399 23.853 7.70399C23.9383 7.78933 23.6397 7.91733 22.957 8.088H22.189C22.0183 8.088 21.8903 8.13066 21.805 8.216H20.909C20.653 8.13066 20.3117 8.088 19.885 8.088C19.885 8.088 19.7997 8.13066 19.629 8.216C19.4583 8.30133 19.3303 8.34399 19.245 8.34399L18.861 7.96L18.733 8.216C18.733 8.04533 18.6477 7.96 18.477 7.96C18.3917 7.96 18.221 8.04533 17.965 8.216C17.7943 8.38667 17.6663 8.472 17.581 8.472C17.4957 8.472 17.4103 8.42933 17.325 8.34399C17.2397 8.25866 17.1543 8.216 17.069 8.216L12.589 8.98399C12.5037 8.98399 12.461 9.02666 12.461 9.112C12.461 9.19733 12.4183 9.24 12.333 9.24C12.2477 9.24 12.1623 9.19733 12.077 9.112C11.9917 8.94133 11.9063 8.856 11.821 8.856C11.7357 8.856 11.565 8.94133 11.309 9.112C11.053 9.28266 10.8823 9.368 10.797 9.368C9.85833 9.368 9.261 9.41066 9.005 9.49599C8.40767 10.0933 7.853 10.392 7.341 10.392C7.25567 10.392 7.17033 10.3493 7.085 10.264H6.829C6.74367 10.264 6.573 10.3493 6.317 10.52C6.061 10.6907 5.59167 11.2027 4.909 12.056L4.141 12.952C3.54367 13.3787 2.94633 14.0187 2.349 14.872C2.349 15.0427 2.30633 15.1707 2.221 15.256C2.30633 15.4267 2.349 15.6827 2.349 16.024C2.349 16.536 2.17833 16.92 1.837 17.176C1.837 17.2613 1.87967 17.304 1.965 17.304C1.79433 17.9867 1.837 18.4987 2.093 18.84C2.00767 18.7547 1.965 18.84 1.965 19.096C1.965 19.9493 2.093 20.76 2.349 21.528C2.349 21.6133 2.51967 21.9973 2.861 22.68C3.28767 23.2773 3.58633 23.576 3.757 23.576V24.216C3.757 24.3013 3.79967 24.4293 3.885 24.6C4.05567 24.7707 4.141 24.856 4.141 24.856V25.624C4.31167 25.624 4.43967 25.6667 4.525 25.752V26.136L5.677 27.544C5.677 27.7147 5.84767 27.9707 6.189 28.312C6.78633 29.1653 7.12767 29.592 7.213 29.592L7.469 29.464V29.848C7.55433 30.104 7.76767 30.4027 8.109 30.744C8.877 31.512 9.773 32.2373 10.797 32.92C10.797 33.0053 10.7543 33.0907 10.669 33.176L11.053 33.688C11.7357 34.968 12.461 35.5653 13.229 35.48C13.3143 35.5653 13.3143 35.736 13.229 35.992C13.6557 36.3333 14.2103 36.8027 14.893 37.4C15.661 37.9973 16.5143 38.6373 17.453 39.32C17.7943 39.32 18.0503 39.3627 18.221 39.448C18.477 39.7893 18.6903 39.96 18.861 39.96C19.5437 40.984 20.1837 41.496 20.781 41.496C20.8663 41.6667 21.5063 41.9653 22.701 42.392C22.8717 42.4773 23.2557 42.7333 23.853 43.16C24.4503 43.5867 24.9197 43.8 25.261 43.8C25.3463 43.7147 25.4317 43.672 25.517 43.672V43.928C25.517 44.44 25.7303 44.6107 26.157 44.44C26.5837 44.2693 26.8397 44.44 26.925 44.952C27.0957 44.7813 27.181 44.6533 27.181 44.568C27.3517 44.9093 27.565 45.208 27.821 45.464C28.589 45.72 28.9303 45.848 28.845 45.848L27.949 46.104C27.8637 45.848 27.6077 45.72 27.181 45.72C27.0957 45.72 26.9677 45.72 26.797 45.72C26.6263 45.72 26.4557 45.7627 26.285 45.848C26.285 45.848 26.157 45.8053 25.901 45.72C25.645 45.5493 25.3037 45.2933 24.877 44.952C24.7063 44.7813 24.4503 44.6533 24.109 44.568L23.853 44.696L23.981 44.568C23.6397 44.2267 23.3837 44.056 23.213 44.056C23.2983 44.056 23.213 44.1413 22.957 44.312C22.8717 44.056 22.1037 43.6293 20.653 43.032C20.653 42.8613 20.525 42.648 20.269 42.392C19.6717 42.0507 19.2023 41.88 18.861 41.88C18.7757 41.88 18.7757 41.9227 18.861 42.008H18.733C18.5623 42.008 17.8797 41.5813 16.685 40.728C15.4903 39.8747 14.8077 39.448 14.637 39.448C14.4663 39.448 14.381 39.5333 14.381 39.704C14.381 39.704 14.253 39.576 13.997 39.32C13.8263 39.064 13.741 38.8507 13.741 38.68C13.5703 38.68 13.2717 38.424 12.845 37.912L12.589 38.168L12.205 37.656C12.0343 36.9733 11.693 36.76 11.181 37.016L10.925 36.12C10.7543 36.2907 10.5837 36.376 10.413 36.376L10.029 35.992H9.773C9.43167 35.992 9.04767 35.7787 8.621 35.352C8.19433 34.84 7.853 34.328 7.597 33.816L6.701 33.176V32.92C6.701 32.664 6.53033 32.3653 6.189 32.024C5.50633 31.5973 5.12233 31.3413 5.037 31.256C5.037 31.1707 4.909 30.9573 4.653 30.616C4.653 30.5307 4.69567 30.4453 4.781 30.36C4.781 30.2747 4.69567 30.0613 4.525 29.72C4.525 29.6347 4.35433 29.464 4.013 29.208C4.013 29.208 3.97033 29.1227 3.885 28.952C3.79967 28.696 3.757 28.4827 3.757 28.312C3.41567 28.2267 2.989 27.5867 2.477 26.392C2.30633 26.2213 2.17833 26.1787 2.093 26.264C2.17833 26.008 2.17833 25.7093 2.093 25.368C2.00767 25.2827 1.92233 25.1973 1.837 25.112C1.75167 24.9413 1.53833 24.3867 1.197 23.448C1.11167 23.1067 0.983667 22.5947 0.813 21.912C0.727667 21.2293 0.685 20.9733 0.685 21.144C0.685 21.0587 0.727667 20.888 0.813 20.632C0.898334 20.376 0.983667 20.1627 1.069 19.992C1.15433 19.3947 1.15433 18.968 1.069 18.712C0.983667 18.456 0.941 18.2 0.941 17.944C1.02633 17.8587 1.53833 16.4933 2.477 13.848C2.81833 12.7387 3.373 11.8 4.141 11.032C4.909 10.6907 5.84767 9.92266 6.957 8.728C7.04233 8.728 7.25567 8.68533 7.597 8.6C7.853 8.51467 8.237 8.30133 8.749 7.96C9.34633 7.61867 9.773 7.49066 10.029 7.576C10.029 7.23466 10.0717 7.02133 10.157 6.936C12.0343 5.99733 13.0583 5.528 13.229 5.528H13.357C13.357 5.61333 13.4423 5.656 13.613 5.656C13.613 5.656 13.741 5.57066 13.997 5.39999C14.3383 5.144 14.5517 5.016 14.637 5.016C14.7223 5.016 14.8077 5.05866 14.893 5.144H15.021C15.277 5.144 15.405 5.016 15.405 4.75999C15.3197 4.75999 15.277 4.71733 15.277 4.632C15.277 4.632 15.405 4.632 15.661 4.632C15.917 4.54666 16.301 4.46133 16.813 4.376L18.861 3.992C19.5437 3.992 20.013 3.864 20.269 3.60799C20.4397 3.77866 20.5677 3.864 20.653 3.864C21.165 3.864 21.3783 3.82133 21.293 3.736L21.549 3.48C22.7437 3.30933 23.8957 3.30933 25.005 3.48L25.261 3.736L25.517 3.352H27.053C26.9677 3.352 27.053 3.48 27.309 3.736H27.565C27.7357 3.736 27.9063 3.69333 28.077 3.60799C28.2477 3.43733 28.3757 3.352 28.461 3.352C28.5463 3.352 28.717 3.43733 28.973 3.60799C29.3143 3.77866 29.5277 3.864 29.613 3.864C29.7837 3.864 29.869 3.82133 29.869 3.736C29.869 3.65066 29.9117 3.60799 29.997 3.60799H30.125C30.0397 3.69333 30.0397 3.736 30.125 3.736C30.2103 3.736 30.2957 3.69333 30.381 3.60799C30.4663 3.43733 30.5517 3.352 30.637 3.352C30.8077 3.352 31.0637 3.43733 31.405 3.60799C31.7463 3.77866 32.0023 3.864 32.173 3.864C32.429 3.864 32.557 3.736 32.557 3.48L33.069 3.60799C33.2397 3.60799 33.325 3.52266 33.325 3.352C33.7517 3.864 34.4343 4.12 35.373 4.12C36.0557 4.12 36.6103 4.12 37.037 4.12C37.4637 4.12 37.805 4.16266 38.061 4.24799C40.5357 4.76 41.8583 5.016 42.029 5.016C42.1997 5.016 42.2423 4.97333 42.157 4.88799C43.949 5.57066 45.101 5.91199 45.613 5.91199C45.6983 5.91199 45.741 5.86933 45.741 5.784H45.997L47.405 6.03999H47.917C47.917 6.46666 47.9597 6.72267 48.045 6.808L48.173 6.55199C48.685 6.72266 49.1117 6.89333 49.453 7.064C49.709 7.064 49.7943 7.10666 49.709 7.19199C49.709 7.19199 49.6237 7.14933 49.453 7.064H49.325C49.2397 7.064 49.1543 7.10666 49.069 7.19199C49.069 7.27733 49.0263 7.32 48.941 7.32C48.8557 7.32 48.7277 7.23466 48.557 7.064C48.3863 6.89333 48.2583 6.808 48.173 6.808L46.765 7.064C46.5943 7.064 46.5517 7.064 46.637 7.064H46.765C46.8503 6.97866 46.5943 6.89333 45.997 6.808C45.741 6.72267 45.1437 6.68 44.205 6.68C44.1197 6.68 43.9917 6.76533 43.821 6.936C43.7357 7.02133 43.6503 7.064 43.565 7.064C43.053 7.064 42.7543 7.02133 42.669 6.936L42.541 7.19199L42.925 7.576L43.309 7.19199C43.4797 7.36266 43.6077 7.448 43.693 7.448C43.8637 7.448 43.9063 7.40533 43.821 7.32C44.077 7.576 44.589 7.70399 45.357 7.70399H45.869C45.7837 7.78933 45.7837 7.87466 45.869 7.96C45.9543 7.87466 46.1677 7.83199 46.509 7.83199C46.4237 7.83199 46.509 7.91733 46.765 8.088C47.1063 8.17333 47.6183 8.30133 48.301 8.472C48.9837 8.728 49.581 8.856 50.093 8.856C52.141 8.856 53.293 9.15466 53.549 9.752L53.805 9.62399C54.1463 9.79466 54.4877 9.83733 54.829 9.752C55.2557 9.92266 55.5543 10.0507 55.725 10.136C55.8957 10.2213 55.981 10.264 55.981 10.264H58.157L59.181 10.776C59.6077 10.9467 59.949 11.0747 60.205 11.16C60.5463 11.16 60.845 11.16 61.101 11.16C61.1863 11.16 61.2717 11.2027 61.357 11.288C61.4423 11.3733 61.5277 11.416 61.613 11.416C61.6983 11.416 61.741 11.3733 61.741 11.288C61.741 11.2027 61.7837 11.16 61.869 11.16L63.533 11.672H64.173C64.2583 11.672 64.301 11.7573 64.301 11.928C64.3863 12.0133 64.5143 12.0133 64.685 11.928L65.197 11.8C65.197 11.8853 65.325 12.0133 65.581 12.184L65.837 11.928C66.6903 12.3547 67.1597 12.568 67.245 12.568C68.013 12.568 68.5677 12.696 68.909 12.952C69.2503 13.1227 69.3783 13.208 69.293 13.208C69.4637 13.208 69.5917 13.1653 69.677 13.08H70.061C70.2317 13.08 70.445 13.1653 70.701 13.336C71.0423 13.5067 71.2983 13.592 71.469 13.592C71.5543 13.592 71.5543 13.5493 71.469 13.464C71.3837 13.3787 71.3837 13.336 71.469 13.336C71.5543 13.336 71.6823 13.3787 71.853 13.464C72.0237 13.5493 72.1517 13.592 72.237 13.592C72.6637 13.592 72.9623 13.6773 73.133 13.848C73.389 14.0187 73.6877 14.104 74.029 14.104H74.285C74.285 14.0187 74.3277 13.976 74.413 13.976C74.4983 13.976 74.6263 14.0613 74.797 14.232C75.053 14.4027 75.2237 14.488 75.309 14.488H76.461C77.741 14.9147 78.381 15.128 78.381 15.128V15.512C78.4663 15.5973 78.5517 15.64 78.637 15.64C78.637 15.64 78.6797 15.64 78.765 15.64C78.8503 15.64 78.9357 15.5973 79.021 15.512H79.789L81.069 15.768C81.1543 15.8533 81.4103 15.5547 81.837 14.872C82.349 14.1893 82.8183 13.4213 83.245 12.568V12.312H83.501C83.757 12.1413 84.2263 11.5013 84.909 10.392C84.9943 10.3067 85.0797 10.2213 85.165 10.136C85.3357 9.96533 85.5063 9.70933 85.677 9.368C86.3597 9.28266 86.829 8.89866 87.085 8.216C87.341 7.53333 87.597 6.93599 87.853 6.424C87.853 6.424 87.853 6.46666 87.853 6.55199C87.853 6.55199 87.8957 6.59466 87.981 6.68C88.3223 6.424 88.5357 6.25333 88.621 6.168C88.5357 6.08266 88.5357 6.03999 88.621 6.03999C88.7063 6.03999 88.7063 6.08266 88.621 6.168C88.7063 6.25333 88.7917 6.296 88.877 6.296C89.0477 5.44267 89.6023 4.67466 90.541 3.992C91.4797 3.30933 92.0343 2.84 92.205 2.584C92.3757 2.41333 92.5037 2.28533 92.589 2.2C92.6743 2.11466 92.7597 2.02933 92.845 1.94399C93.0157 1.77333 93.357 1.51733 93.869 1.17599C94.381 0.749329 94.765 0.493329 95.021 0.407997C95.1917 0.493329 95.4477 0.663996 95.789 0.919998C96.2157 1.09066 96.5143 1.304 96.685 1.56C96.5997 1.64533 96.557 1.85866 96.557 2.2C96.7277 2.37066 96.8557 2.66933 96.941 3.09599C96.5143 3.52266 95.533 4.248 93.997 5.272L91.949 7.576C91.8637 7.49066 91.7357 7.448 91.565 7.448V6.936C91.4797 6.85066 91.6503 6.59467 92.077 6.168C92.077 6.08266 92.0343 5.99733 91.949 5.91199C91.0957 6.33866 90.797 6.55199 91.053 6.55199C90.9677 6.55199 90.8397 6.46666 90.669 6.296C90.0717 6.97867 89.517 7.66133 89.005 8.34399C88.5783 9.02666 88.1943 9.66666 87.853 10.264C87.6823 10.264 87.5543 10.3067 87.469 10.392C87.3837 10.5627 87.213 10.8613 86.957 11.288C86.7863 11.6293 86.5303 12.0133 86.189 12.44L85.933 13.336C85.421 13.9333 84.781 14.9573 84.013 16.408C84.4397 16.664 84.6957 16.792 84.781 16.792C85.293 16.792 85.6343 16.8773 85.805 17.048C86.061 17.1333 86.2743 17.176 86.445 17.176C87.0423 17.176 87.469 17.2613 87.725 17.432C88.0663 17.5173 88.365 17.5173 88.621 17.432C88.7063 17.7733 88.9197 17.944 89.261 17.944C89.517 17.944 89.6877 17.9013 89.773 17.816L91.181 18.2C91.3517 18.2853 91.565 18.3707 91.821 18.456C92.077 18.5413 92.3757 18.6267 92.717 18.712C93.1437 18.712 93.485 18.7547 93.741 18.84C94.4237 19.096 94.7223 19.224 94.637 19.224C94.637 19.224 94.6797 19.1813 94.765 19.096L95.021 19.352C95.6183 19.352 95.8743 19.3093 95.789 19.224C95.8743 19.224 96.0877 19.3093 96.429 19.48H96.813C96.813 19.3947 96.8557 19.352 96.941 19.352L97.837 19.736H98.221L99.117 19.992H100.141C100.482 19.9067 100.781 19.864 101.037 19.864C101.122 19.864 101.165 19.9067 101.165 19.992C101.08 20.0773 101.08 20.12 101.165 20.12C101.848 20.12 102.274 20.0773 102.445 19.992L102.701 20.248C102.872 20.0773 103 19.992 103.085 19.992C103.17 19.992 103.213 20.0347 103.213 20.12C103.298 20.2053 103.384 20.248 103.469 20.248C103.554 20.248 103.597 20.2053 103.597 20.12C103.512 20.0347 103.512 19.992 103.597 19.992H103.853C103.938 20.0773 104.024 20.12 104.109 20.12H104.493L105.389 20.376C105.474 20.2907 105.474 20.2053 105.389 20.12C105.56 20.2053 105.688 20.2907 105.773 20.376C105.944 20.376 106.456 20.376 107.309 20.376C107.394 20.376 107.65 20.2907 108.077 20.12C108.504 19.864 108.76 19.736 108.845 19.736C108.93 19.736 108.973 19.7787 108.973 19.864H109.101L109.997 19.608C110.253 19.608 110.509 19.5653 110.765 19.48C111.789 19.224 112.301 19.0107 112.301 18.84V18.968C112.386 18.968 112.728 18.7973 113.325 18.456C113.922 18.0293 114.477 17.56 114.989 17.048C114.989 17.048 115.032 17.0053 115.117 16.92C115.288 16.7493 115.544 16.5787 115.885 16.408L116.141 15.256C116.397 15.256 116.525 15.3413 116.525 15.512V15.256C116.525 14.9147 116.653 14.488 116.909 13.976L117.421 15C117.506 15.0853 117.549 15.3413 117.549 15.768C117.549 16.3653 117.506 16.6213 117.421 16.536C116.994 17.2187 116.781 17.9867 116.781 18.84C116.696 18.84 116.61 18.7973 116.525 18.712C116.269 19.1387 115.885 19.5227 115.373 19.864C114.946 20.2053 114.69 20.376 114.605 20.376H114.349C114.093 20.376 113.965 20.504 113.965 20.76C112.77 20.76 112.088 21.016 111.917 21.528L111.533 21.272V21.4C111.362 21.3147 111.149 21.272 110.893 21.272C110.722 21.272 110.552 21.3573 110.381 21.528C110.466 21.4427 110.424 21.4 110.253 21.4H109.485C109.144 21.656 108.802 21.784 108.461 21.784C108.376 21.784 108.205 21.7413 107.949 21.656C107.778 21.5707 107.309 21.528 106.541 21.528C106.626 21.528 106.456 21.656 106.029 21.912H105.645C105.218 21.5707 105.005 21.4 105.005 21.4C104.664 21.4 104.28 21.528 103.853 21.784L103.597 21.528L103.341 21.912L103.085 21.656C102.488 21.5707 101.848 21.4853 101.165 21.4C100.568 21.3147 99.9277 21.2293 99.245 21.144C99.0743 21.3147 98.989 21.4 98.989 21.4L98.861 21.272L98.477 21.528C98.477 21.4427 98.5197 21.3573 98.605 21.272C97.581 20.76 96.6423 20.504 95.789 20.504C95.6183 20.504 95.533 20.5467 95.533 20.632C95.533 20.7173 95.533 20.76 95.533 20.76H95.405C95.405 20.76 95.4477 20.7173 95.533 20.632C95.277 20.4613 94.5517 20.2907 93.357 20.12C93.2717 20.0347 93.101 19.992 92.845 19.992C92.589 19.992 92.2903 19.9493 91.949 19.864C91.949 19.6933 91.9063 19.5653 91.821 19.48L91.565 19.736L89.645 19.352C89.4743 19.1813 89.3463 19.096 89.261 19.096H89.133C89.133 19.1813 89.0903 19.224 89.005 19.224C88.749 19.224 88.5783 19.0533 88.493 18.712C88.4077 18.712 88.2797 18.7547 88.109 18.84C88.0237 18.9253 87.9383 18.968 87.853 18.968C87.7677 18.968 87.597 18.9253 87.341 18.84C87.085 18.6693 86.9143 18.584 86.829 18.584C86.7437 18.584 86.6583 18.6267 86.573 18.712H86.445C86.3597 18.712 86.2317 18.584 86.061 18.328L85.805 18.456L85.293 18.072H85.037C85.037 18.1573 84.9943 18.2 84.909 18.2C84.653 17.944 84.0983 17.816 83.245 17.816C83.1597 17.816 82.5197 19.096 81.325 21.656C80.4717 23.448 80.045 24.344 80.045 24.344L78.509 27.16C78.3383 27.3307 78.3383 27.544 78.509 27.8C78.1677 27.9707 77.9543 28.3973 77.869 29.08L77.485 29.464L76.589 31.768C76.589 31.768 76.2477 32.3653 75.565 33.56L75.053 35.096L73.005 39.192C72.9197 39.3627 72.8343 39.6187 72.749 39.96C72.6637 40.3013 72.5783 40.6853 72.493 41.112C71.981 41.624 71.6397 42.0933 71.469 42.52C71.0423 43.8853 70.5303 45.2933 69.933 46.744C69.3357 48.1093 68.6103 49.4747 67.757 50.84C67.6717 51.0107 67.5863 51.1813 67.501 51.352C67.501 51.5227 67.4157 51.6933 67.245 51.864L64.813 58.008C64.4717 58.0933 64.301 58.4347 64.301 59.032C64.1303 59.3733 63.917 59.7573 63.661 60.184C63.405 60.6107 63.149 61.1227 62.893 61.72C62.4663 62.6587 61.9117 63.768 61.229 65.048C60.5463 66.2427 59.7783 67.5653 58.925 69.016C58.7543 69.1867 58.541 69.4427 58.285 69.784C58.1143 70.1253 57.8583 70.5093 57.517 70.936C57.4317 71.2773 57.261 71.6187 57.005 71.96C56.8343 72.3013 56.621 72.6853 56.365 73.112C56.2797 73.2827 55.7677 73.8373 54.829 74.776C54.7437 75.1173 54.3597 75.544 53.677 76.056C53.677 76.1413 53.7623 76.2693 53.933 76.44L54.189 76.184L54.445 76.44C54.5303 76.3547 54.7863 76.312 55.213 76.312C55.2983 76.312 55.469 76.3973 55.725 76.568C56.0663 76.7387 56.2797 76.824 56.365 76.824C56.4503 76.824 56.5783 76.7813 56.749 76.696C57.005 76.6107 57.2183 76.568 57.389 76.568C57.4743 76.568 57.5597 76.6107 57.645 76.696C58.8397 76.44 59.9063 76.312 60.845 76.312C61.0157 76.312 61.1863 76.3547 61.357 76.44H61.869C62.125 76.44 62.4237 76.312 62.765 76.056C62.765 76.1413 62.9783 76.312 63.405 76.568V76.952C62.8077 77.208 62.4237 77.336 62.253 77.336C62.0823 77.336 61.997 77.2933 61.997 77.208C62.0823 77.1227 62.0823 77.08 61.997 77.08L59.821 77.464H56.237C56.1517 77.464 56.0237 77.4213 55.853 77.336C55.7677 77.2507 55.6823 77.208 55.597 77.208C55.5117 77.208 55.4263 77.2507 55.341 77.336C55.341 77.4213 55.2983 77.464 55.213 77.464C55.1277 77.464 54.9997 77.4213 54.829 77.336C54.7437 77.2507 54.6583 77.208 54.573 77.208L53.677 77.464C53.5917 77.464 53.549 77.4213 53.549 77.336C53.6343 77.2507 53.6343 77.208 53.549 77.208H53.037C52.6957 77.3787 52.4823 77.5493 52.397 77.72L50.093 79.896C49.837 80.152 49.4103 80.408 48.813 80.664C48.1303 81.2613 46.9357 82.072 45.229 83.096H45.101C44.845 83.096 44.4183 83.3093 43.821 83.736C43.309 84.1627 42.8823 84.4613 42.541 84.632H41.773C41.773 84.632 41.5597 84.6747 41.133 84.76C40.7917 84.9307 40.5357 85.016 40.365 85.016H40.109C40.109 84.9307 40.0663 84.888 39.981 84.888C39.213 84.888 38.1037 85.272 36.653 86.04C36.653 85.6987 36.525 85.528 36.269 85.528C36.3543 85.528 36.1837 85.6133 35.757 85.784C35.3303 85.9547 35.1597 86.04 35.245 86.04ZM51.629 7.96C51.0317 7.96 50.477 7.832 49.965 7.576C49.965 7.49066 49.9223 7.40533 49.837 7.32C50.0077 7.14933 50.1357 7.064 50.221 7.064L51.501 7.448L52.013 7.96H51.629ZM52.397 8.088L52.141 7.576H52.397L52.653 8.088H52.397ZM0.941 17.944C0.941 17.8587 0.941 17.8587 0.941 17.944V17.944ZM31.149 47.256C31.149 47.256 31.021 47.2133 30.765 47.128C30.5943 46.9573 30.509 46.7867 30.509 46.616C30.8503 46.7867 31.149 46.872 31.405 46.872C31.405 47.128 31.3197 47.256 31.149 47.256ZM33.709 82.712C33.8797 82.712 34.0503 82.6693 34.221 82.584H34.861C34.9463 82.584 35.0317 82.6267 35.117 82.712H35.245C35.9277 82.712 36.909 82.4133 38.189 81.816C39.5543 81.2187 41.2183 80.4507 43.181 79.512C43.2663 79.256 43.437 79.0853 43.693 79C44.0343 78.6587 44.4183 78.2747 44.845 77.848C45.357 77.4213 45.9543 76.9093 46.637 76.312L46.253 76.056C46.253 76.2267 46.2103 76.312 46.125 76.312C45.9543 76.312 45.7837 76.2693 45.613 76.184C45.4423 76.0133 45.3143 75.928 45.229 75.928L44.845 76.056C44.6743 76.056 44.5463 76.0133 44.461 75.928H44.077L41.133 75.032C41.0477 75.032 40.9623 75.0747 40.877 75.16H40.749C40.6637 75.16 40.493 75.1173 40.237 75.032C39.981 74.8613 39.8103 74.776 39.725 74.776H39.597C39.597 74.8613 39.5117 74.904 39.341 74.904C39.2557 74.904 38.957 74.776 38.445 74.52C38.0183 74.264 37.7623 74.136 37.677 74.136C37.5917 74.136 37.549 74.1787 37.549 74.264H37.421C35.9703 74.264 34.9037 73.88 34.221 73.112C34.221 73.2827 34.1783 73.368 34.093 73.368C34.0077 73.368 33.7943 73.2827 33.453 73.112C33.1117 72.9413 32.8983 72.856 32.813 72.856H32.557C32.557 72.9413 32.5143 72.984 32.429 72.984C32.3437 72.984 32.1303 72.8987 31.789 72.728C31.4477 72.5573 31.2343 72.472 31.149 72.472H31.021C30.9357 72.5573 30.8503 72.6 30.765 72.6C30.6797 72.6 30.4663 72.5147 30.125 72.344C29.869 72.1733 29.6983 72.088 29.613 72.088C29.4423 72.088 29.3997 72.1307 29.485 72.216H29.357L28.589 71.704C28.5037 71.6187 28.333 71.576 28.077 71.576C27.9063 71.576 27.693 71.5333 27.437 71.448C26.5837 71.1067 26.029 70.936 25.773 70.936C25.6023 70.8507 25.4743 70.808 25.389 70.808L23.597 70.296C23.597 70.1253 23.5543 70.04 23.469 70.04C23.3837 70.04 23.341 70.0827 23.341 70.168H23.085C23.2557 69.9973 22.9997 69.784 22.317 69.528C22.317 70.2107 22.573 71.1493 23.085 72.344C23.085 72.344 23.0423 72.344 22.957 72.344C22.957 72.344 22.9143 72.3867 22.829 72.472C22.9997 72.984 23.2557 73.496 23.597 74.008C23.597 74.008 23.597 74.0933 23.597 74.264C23.597 74.3493 23.5543 74.52 23.469 74.776C23.6397 74.776 23.8103 74.8613 23.981 75.032C23.8103 75.2027 23.725 75.3307 23.725 75.416L25.261 77.592C25.261 77.7627 25.3463 78.0187 25.517 78.36C26.7117 79.5547 27.3517 80.152 27.437 80.152C27.6077 80.152 27.7357 80.1947 27.821 80.28H28.077V80.792H28.205C28.2903 80.7067 28.3757 80.664 28.461 80.664C28.8877 81.176 29.1863 81.432 29.357 81.432C29.4423 81.432 29.4423 81.3893 29.357 81.304C29.357 81.2187 29.3997 81.176 29.485 81.176C29.5703 81.176 29.6983 81.2613 29.869 81.432C30.0397 81.688 30.1677 81.816 30.253 81.816C30.509 81.816 30.6797 81.7733 30.765 81.688C31.1063 82.0293 31.277 82.2 31.277 82.2H31.405C31.405 82.1147 31.4477 82.072 31.533 82.072C31.6183 82.072 31.661 82.1147 31.661 82.2C31.7463 82.3707 31.8317 82.456 31.917 82.456H32.557L33.709 82.712ZM85.537 79.512C85.281 79.512 85.0677 79.2987 84.897 78.872C84.8117 78.9573 84.769 79.0427 84.769 79.128H84.001L83.617 78.36C83.5317 78.4453 83.489 78.5307 83.489 78.616C83.4037 78.616 83.2757 78.5307 83.105 78.36L82.721 78.616C82.2943 78.1893 81.825 77.6347 81.313 76.952C80.8863 76.184 80.6303 75.416 80.545 74.648C80.4597 74.5627 80.289 74.52 80.033 74.52V73.496C80.3743 73.4107 80.5877 72.728 80.673 71.448L81.057 70.936V70.296L80.801 70.04L81.313 69.656L82.721 65.688L84.001 64.28V63.896C85.025 63.2133 85.665 62.488 85.921 61.72C86.2623 61.72 86.433 61.5493 86.433 61.208C87.5423 60.8667 87.969 60.312 87.713 59.544C87.8837 59.4587 87.969 59.416 87.969 59.416C88.0543 59.416 88.097 59.416 88.097 59.416C88.1823 59.416 88.353 59.5013 88.609 59.672C88.865 59.7573 89.0357 59.8 89.121 59.8C89.2917 59.8 89.4197 59.7573 89.505 59.672C89.6757 59.5867 89.8037 59.544 89.889 59.544C90.2303 59.8853 90.4437 60.056 90.529 60.056C90.9557 60.056 91.3823 59.8853 91.809 59.544C91.809 59.6293 91.8517 59.7573 91.937 59.928C92.0223 60.0987 92.065 60.2267 92.065 60.312C92.065 60.7387 91.8943 61.1227 91.553 61.464L91.937 61.976C91.937 62.5733 91.425 63.512 90.401 64.792C89.377 65.9013 88.6517 66.5413 88.225 66.712C88.1397 66.7973 88.0543 66.968 87.969 67.224C87.8837 67.3947 87.7557 67.5653 87.585 67.736H87.329L87.073 67.48L85.793 69.144C85.793 69.4853 85.4517 70.1253 84.769 71.064C84.513 71.1493 84.2997 71.192 84.129 71.192C84.0437 71.1067 84.001 71.1067 84.001 71.192V72.088C84.4277 72.856 84.5983 73.368 84.513 73.624C84.257 74.136 84.129 74.4347 84.129 74.52C84.129 74.4347 84.385 74.776 84.897 75.544C84.8117 75.6293 84.769 75.928 84.769 76.44C85.4517 76.5253 86.3477 76.9093 87.457 77.592H87.969C88.3103 77.592 88.5237 77.5493 88.609 77.464C88.7797 77.2933 88.865 77.208 88.865 77.208C88.9503 77.208 88.993 77.2507 88.993 77.336H89.121C89.2063 77.336 89.4197 77.1653 89.761 76.824C90.1023 76.4827 90.3157 76.312 90.401 76.312C90.4863 76.312 90.529 76.3547 90.529 76.44C90.529 76.5253 90.5717 76.568 90.657 76.568C90.7423 76.568 90.913 76.5253 91.169 76.44C91.425 76.3547 91.6383 76.312 91.809 76.312V75.928C91.7237 75.8427 91.7237 75.8 91.809 75.8V75.928C91.8943 76.0133 92.193 76.1413 92.705 76.312L92.577 75.8C92.833 75.7147 93.0463 75.4587 93.217 75.032C93.6437 75.032 94.0277 74.9893 94.369 74.904C94.7957 74.7333 95.009 74.52 95.009 74.264H96.033C96.033 74.4347 96.1183 74.52 96.289 74.52C97.1423 74.52 97.6117 73.9653 97.697 72.856L98.465 72.088C98.465 72.088 98.5503 72.1733 98.721 72.344C99.0623 72.0027 99.361 71.832 99.617 71.832C99.7023 71.832 99.745 71.8747 99.745 71.96C99.8303 72.0453 99.9583 72.088 100.129 72.088C100.385 72.088 100.641 71.96 100.897 71.704C101.153 71.448 101.281 71.2773 101.281 71.192C101.452 71.0213 101.665 70.8507 101.921 70.68C102.177 70.5093 102.39 70.2533 102.561 69.912L103.329 70.296C103.244 70.2107 104.14 69.4427 106.017 67.992C106.87 67.6507 107.297 67.3947 107.297 67.224C107.638 67.224 107.98 67.096 108.321 66.84V66.456L110.113 65.56V66.328H109.473C109.388 66.4133 109.345 66.6693 109.345 67.096L106.401 69.4C106.23 69.4 106.188 69.3573 106.273 69.272H106.145C106.23 69.272 105.846 69.6987 104.993 70.552C104.822 70.7227 104.481 70.808 103.969 70.808C102.86 71.832 102.433 72.3013 102.689 72.216C102.604 72.1307 102.518 72.088 102.433 72.088C102.348 72.1733 102.305 72.344 102.305 72.6H102.177C101.836 72.6 101.324 72.9413 100.641 73.624C100.556 73.624 100.428 73.624 100.257 73.624C100.086 73.624 99.9157 73.6667 99.745 73.752C99.4037 74.008 98.977 74.3493 98.465 74.776C98.0383 75.1173 97.5263 75.544 96.929 76.056H96.161C95.5637 76.568 95.137 76.824 94.881 76.824H94.497C94.4117 76.7387 94.3263 76.696 94.241 76.696C94.1557 76.696 93.8143 76.8667 93.217 77.208C92.705 77.5493 92.3637 77.72 92.193 77.72H92.065C92.065 77.6347 92.0223 77.592 91.937 77.592C91.8517 77.592 91.5103 77.7627 90.913 78.104C90.401 78.36 90.1023 78.488 90.017 78.488H89.889C89.889 78.4027 89.8037 78.36 89.633 78.36C89.5477 78.36 89.4197 78.4027 89.249 78.488C89.1637 78.5733 88.9503 78.6587 88.609 78.744C87.7557 79.1707 87.4997 79.384 87.841 79.384C87.7557 79.384 87.4997 79.3413 87.073 79.256C86.6463 79.1707 86.3477 79.128 86.177 79.128L85.537 79.512ZM111.137 65.304C111.052 65.304 110.966 65.2613 110.881 65.176C110.881 65.0053 110.838 64.92 110.753 64.92L112.545 63C112.886 63 113.057 63.0853 113.057 63.256C113.057 63.5973 112.758 64.024 112.161 64.536C111.649 64.9627 111.308 65.2187 111.137 65.304ZM94.369 55.064C93.6863 55.064 92.7477 54.5947 91.553 53.656C90.529 52.632 90.017 51.8213 90.017 51.224C91.041 50.7973 92.1503 50.328 93.345 49.816C94.625 49.2187 95.9477 48.5787 97.313 47.896H97.441C97.0997 48.8347 96.6303 49.6027 96.033 50.2L96.289 51.096V51.864L95.649 52.632C95.649 54.2533 95.2223 55.064 94.369 55.064ZM121.744 80.28C121.317 79.8533 120.891 79.64 120.464 79.64L119.44 79.896C119.355 79.896 119.184 79.8107 118.928 79.64C118.672 79.4693 118.501 79.384 118.416 79.384C118.16 79.384 118.032 79.4693 118.032 79.64C117.52 79.128 117.093 78.872 116.752 78.872H116.624C116.624 78.9573 116.539 79 116.368 79C116.112 79 115.856 78.7867 115.6 78.36L115.088 77.72C115.003 77.72 114.747 77.464 114.32 76.952C113.893 76.44 113.765 75.6293 113.936 74.52V74.136C113.851 73.9653 113.595 73.9653 113.168 74.136C113.083 73.9653 112.997 73.7947 112.912 73.624C112.827 73.368 112.699 73.112 112.528 72.856C112.443 72.856 112.059 73.1973 111.376 73.88L110.608 74.264L109.84 75.416C109.243 75.7573 108.859 76.0133 108.688 76.184C108.517 76.3547 108.389 76.44 108.304 76.44H107.92C107.579 76.3547 107.408 76.184 107.408 75.928C107.408 75.7573 107.579 75.4587 107.92 75.032C108.347 74.6053 108.645 74.392 108.816 74.392C108.987 74.4773 109.115 74.52 109.2 74.52L109.328 74.008C110.181 73.6667 110.608 73.1973 110.608 72.6L111.504 71.832C111.845 71.832 112.144 71.576 112.4 71.064L112.912 70.68L113.424 68.12C113.595 68.12 113.723 68.0347 113.808 67.864C113.893 67.6933 114.107 67.1813 114.448 66.328C114.533 66.2427 114.533 65.944 114.448 65.432C114.448 65.432 114.405 65.432 114.32 65.432C114.32 65.432 114.277 65.3893 114.192 65.304C114.448 64.9627 114.448 64.4933 114.192 63.896C114.277 63.5547 114.619 63.2987 115.216 63.128C115.301 62.9573 115.6 62.616 116.112 62.104C116.197 62.1893 116.368 61.3787 116.624 59.672C116.624 59.5013 116.837 59.3307 117.264 59.16C117.349 58.2213 117.477 57.5387 117.648 57.112C117.904 56.6 118.288 55.96 118.8 55.192C118.971 54.0827 119.184 53.4 119.44 53.144C120.379 51.9493 120.891 51.0533 120.976 50.456C121.573 50.3707 122.171 49.7733 122.768 48.664C122.768 48.664 122.725 48.664 122.64 48.664C122.64 48.664 122.64 48.6213 122.64 48.536C122.64 47.8533 123.237 46.7867 124.432 45.336C125.627 43.9707 126.992 42.2213 128.528 40.088C128.784 40.0027 129.424 39.448 130.448 38.424C130.96 38.2533 131.259 38.1253 131.344 38.04C131.429 38.2107 131.472 38.3387 131.472 38.424C131.472 38.936 131.216 39.2773 130.704 39.448C129.765 40.8987 129.296 41.5387 129.296 41.368C129.296 41.5387 129.381 41.624 129.552 41.624C129.637 41.624 129.68 41.5813 129.68 41.496H129.808C129.979 41.496 130.277 41.7093 130.704 42.136C130.875 41.9653 131.088 41.8373 131.344 41.752C131.344 41.752 131.344 41.7093 131.344 41.624C131.344 41.4533 131.387 41.2827 131.472 41.112C131.557 41.0267 131.728 40.9413 131.984 40.856C132.24 40.6853 132.539 40.4293 132.88 40.088C132.965 39.7467 133.136 39.32 133.392 38.808C133.733 38.2107 134.203 37.7413 134.8 37.4C134.715 37.3147 134.715 37.1013 134.8 36.76C135.056 36.8453 135.312 36.7173 135.568 36.376C135.909 36.0347 136.208 35.9067 136.464 35.992C136.635 35.48 136.805 35.096 136.976 34.84L137.744 34.456C137.915 33.176 138.341 32.536 139.024 32.536C139.195 32.6213 139.323 32.664 139.408 32.664L139.536 32.152C139.621 32.0667 139.749 31.9813 139.92 31.896C140.091 31.8107 140.261 31.6827 140.432 31.512V31.256C140.432 30.4027 140.944 29.9333 141.968 29.848C142.053 29.6773 142.096 29.2933 142.096 28.696H142.736C142.992 28.44 143.163 28.2267 143.248 28.056C143.333 27.8853 143.547 27.7147 143.888 27.544C143.803 26.6053 144.4 25.1547 145.68 23.192C145.339 23.448 145.04 23.576 144.784 23.576C144.699 23.576 144.656 23.5333 144.656 23.448C144.656 23.2773 144.656 23.1067 144.656 22.936C144.656 22.7653 144.699 22.5093 144.784 22.168C144.955 21.9973 145.168 21.784 145.424 21.528C145.765 21.272 146.107 21.016 146.448 20.76C146.619 20.5893 146.789 20.4187 146.96 20.248C147.216 19.992 147.515 19.6933 147.856 19.352C148.112 19.2667 148.539 18.7973 149.136 17.944C149.307 17.7733 149.52 17.56 149.776 17.304C150.032 16.9627 150.245 16.6213 150.416 16.28C151.099 16.1093 151.568 15.6827 151.824 15C152.08 14.3173 152.891 13.72 154.256 13.208C154.597 12.7813 155.237 12.312 156.176 11.8C156.176 11.8 156.261 11.544 156.432 11.032C156.944 10.8613 157.627 10.2213 158.48 9.112C158.565 8.94133 159.035 8.55733 159.888 7.96C160.827 7.27733 161.339 6.936 161.424 6.936H161.936C161.936 6.936 162.235 7.10666 162.832 7.448C163.429 7.70399 164.155 8.08799 165.008 8.6L165.264 10.136L164.88 10.904L165.776 11.288C165.861 11.288 165.904 11.416 165.904 11.672C165.904 12.0987 165.776 12.7813 165.52 13.72C165.435 14.232 165.349 14.744 165.264 15.256C165.264 15.6827 165.307 16.1093 165.392 16.536L162.832 20.12L161.936 21.4C161.851 21.4 161.637 21.4853 161.296 21.656C160.357 22.5093 159.291 24.0453 158.096 26.264C158.011 26.264 157.968 26.264 157.968 26.264C157.968 26.1787 157.925 26.136 157.84 26.136C157.413 26.392 157.029 26.9467 156.688 27.8L155.536 28.312C155.365 28.6533 155.109 28.9947 154.768 29.336L154.512 29.08L154.128 30.36C153.701 30.7013 153.445 31.0427 153.36 31.384C153.36 31.64 153.232 31.9387 152.976 32.28L151.44 33.56C151.355 33.6453 150.843 33.9867 149.904 34.584C149.051 35.1813 148.624 35.608 148.624 35.864C148.112 36.4613 147.429 37.2293 146.576 38.168C145.808 39.0213 144.869 40.088 143.76 41.368C143.419 41.7947 142.949 42.3067 142.352 42.904C141.84 43.416 141.157 44.0133 140.304 44.696C140.133 44.8667 139.835 45.208 139.408 45.72C138.981 46.1467 138.469 46.7013 137.872 47.384C137.445 47.64 136.933 47.9813 136.336 48.408C135.739 48.8347 135.099 49.3467 134.416 49.944C134.416 50.0293 134.288 50.1573 134.032 50.328C133.776 50.4987 133.392 50.968 132.88 51.736H132.496C132.24 52.0773 131.899 52.4613 131.472 52.888C131.131 53.3147 130.747 53.8693 130.32 54.552C130.149 54.552 130.021 54.5947 129.936 54.68C129.339 55.5333 128.699 56.1733 128.016 56.6C128.016 56.6853 127.931 56.8133 127.76 56.984C127.675 57.1547 127.419 57.368 126.992 57.624C126.992 57.7947 126.907 58.0507 126.736 58.392C126.565 58.7333 126.224 59.032 125.712 59.288C125.627 59.3733 125.584 59.544 125.584 59.8H125.2C124.944 60.056 124.731 60.3973 124.56 60.824C123.707 61.08 123.323 61.5067 123.408 62.104L122.256 63.128C121.488 63.7253 120.72 64.536 119.952 65.56C119.867 65.816 119.611 66.9253 119.184 68.888C119.355 69.0587 119.355 69.528 119.184 70.296C118.928 71.1493 118.8 71.704 118.8 71.96C118.8 72.216 118.8 72.3867 118.8 72.472C118.8 72.8987 119.013 73.4107 119.44 74.008C119.952 74.6053 120.208 75.0747 120.208 75.416C120.464 75.5867 120.805 75.5867 121.232 75.416C121.232 75.5867 121.403 75.7147 121.744 75.8C122 76.3973 122.512 76.7387 123.28 76.824L123.664 76.312H124.048C124.133 76.6533 124.347 76.824 124.688 76.824C124.859 76.824 125.072 76.7387 125.328 76.568C125.669 76.3973 125.883 76.312 125.968 76.312C125.883 76.3973 126.011 76.4827 126.352 76.568C126.437 76.4827 126.48 76.2693 126.48 75.928H127.504C129.211 75.928 130.277 75.5867 130.704 74.904C131.045 74.8187 131.429 74.6907 131.856 74.52C132.283 74.3493 132.795 74.1787 133.392 74.008C133.733 73.8373 133.947 73.5813 134.032 73.24C133.947 73.24 133.904 73.1973 133.904 73.112H135.312V72.472C135.483 72.3867 135.952 72.344 136.72 72.344L137.232 71.576L138.64 70.808C138.725 70.808 138.896 70.7653 139.152 70.68C139.493 70.5947 139.92 70.2533 140.432 69.656C140.603 69.656 140.773 69.6133 140.944 69.528C141.456 69.1867 142.267 68.4187 143.376 67.224L145.808 65.944L146.064 65.688H147.216C147.131 66.0293 146.875 66.456 146.448 66.968L144.784 68.12C143.675 68.888 143.163 69.272 143.248 69.272H143.12C143.12 69.1867 143.077 69.144 142.992 69.144C142.309 69.4853 141.883 69.912 141.712 70.424C141.456 70.424 141.285 70.5947 141.2 70.936C141.029 70.936 140.816 70.9787 140.56 71.064C140.56 71.064 140.56 71.1067 140.56 71.192C140.56 71.192 140.517 71.2773 140.432 71.448L138.768 72.6C138.768 73.0267 138.427 73.3253 137.744 73.496C137.488 73.496 137.189 73.3253 136.848 72.984L136.08 73.496V73.624C136.08 74.0507 135.867 74.392 135.44 74.648C135.013 74.904 134.672 74.9467 134.416 74.776C134.501 74.8613 134.544 75.032 134.544 75.288C134.544 75.3733 134.331 75.7147 133.904 76.312L130.832 77.848H130.704C130.704 77.7627 130.619 77.72 130.448 77.72C129.936 77.72 129.424 77.976 128.912 78.488C128.656 78.5733 128.144 78.744 127.376 79C126.608 79.256 126.181 79.384 126.096 79.384L125.712 79.128H124.048C123.707 79.128 123.493 79.256 123.408 79.512C123.323 79.768 123.195 79.896 123.024 79.896C122.939 79.896 122.896 79.8533 122.896 79.768H122.64C122.128 79.768 121.829 79.9387 121.744 80.28ZM122.384 61.336L122.896 61.08C123.323 60.6533 123.749 60.1413 124.176 59.544C124.688 58.9467 125.2 58.3067 125.712 57.624C125.712 57.624 125.84 57.496 126.096 57.24C126.352 56.984 126.48 56.728 126.48 56.472C126.907 56.0453 127.376 55.6187 127.888 55.192C128.4 54.68 128.997 54.1253 129.68 53.528L130.192 52.632C130.277 52.5467 130.405 52.4613 130.576 52.376C130.747 52.2907 130.917 52.1627 131.088 51.992L133.904 49.176C133.989 49.0907 134.032 48.92 134.032 48.664C134.629 48.2373 134.971 47.8533 135.056 47.512C135.227 47.4267 135.525 47.1707 135.952 46.744C136.379 46.3173 136.891 45.7627 137.488 45.08C137.829 45.08 138.256 44.696 138.768 43.928C138.939 43.8427 139.237 43.5867 139.664 43.16C140.773 41.2827 141.328 40.3013 141.328 40.216H141.712L143.632 38.168C143.973 37.8267 144.144 37.3573 144.144 36.76C145.595 36.0773 146.405 35.224 146.576 34.2L147.472 33.56C147.472 33.304 147.771 32.8773 148.368 32.28C148.368 32.28 148.411 32.28 148.496 32.28C148.581 32.28 148.667 32.2373 148.752 32.152C148.923 31.896 149.093 31.5973 149.264 31.256C149.52 30.8293 149.819 30.3173 150.16 29.72H150.8L151.184 28.824C151.355 28.4827 151.611 28.1413 151.952 27.8C152.379 27.3733 152.805 26.8613 153.232 26.264V25.752C153.488 25.752 153.787 25.624 154.128 25.368C154.213 25.1973 154.299 25.0267 154.384 24.856C154.469 24.6 154.597 24.3013 154.768 23.96C155.109 23.3627 155.536 22.68 156.048 21.912C156.645 21.144 157.285 20.248 157.968 19.224C157.968 18.6267 158.309 17.9013 158.992 17.048V16.664C159.077 16.5787 159.035 16.536 158.864 16.536C158.693 16.536 158.523 16.6213 158.352 16.792C156.219 18.4133 154.469 19.7787 153.104 20.888C151.824 21.9973 150.971 22.808 150.544 23.32C150.288 23.4053 150.032 23.6613 149.776 24.088C149.776 24.088 149.648 24.216 149.392 24.472C149.221 24.728 148.923 25.0693 148.496 25.496C148.24 25.8373 147.856 25.9653 147.344 25.88C147.259 26.5627 146.747 27.2453 145.808 27.928C144.955 28.5253 144.485 29.08 144.4 29.592C143.547 30.0187 142.48 31.0427 141.2 32.664C140.091 33.7733 138.555 35.5653 136.592 38.04C136.08 38.296 135.44 39.1067 134.672 40.472L133.776 41.24C133.776 41.5813 133.392 41.9653 132.624 42.392C132.624 42.648 132.453 42.9467 132.112 43.288C131.771 43.6293 131.6 43.8853 131.6 44.056C131.344 44.3973 130.917 44.824 130.32 45.336C130.32 45.336 130.235 45.592 130.064 46.104C129.893 46.4453 129.68 46.744 129.424 47C129.168 47.1707 128.955 47.3413 128.784 47.512C128.699 47.8533 128.656 48.1093 128.656 48.28C128.656 48.4507 128.656 48.5787 128.656 48.664C128.229 49.0907 127.76 49.688 127.248 50.456C126.821 51.224 126.352 52.0773 125.84 53.016C125.413 53.016 125.072 53.4 124.816 54.168C124.56 54.936 124.347 55.3627 124.176 55.448C124.005 55.6187 123.792 55.7467 123.536 55.832V56.344L124.048 56.728C123.707 57.496 123.28 57.9227 122.768 58.008C122.768 58.3493 122.683 58.6907 122.512 59.032C122.512 59.1173 122.597 59.16 122.768 59.16C122.597 59.5867 122.469 59.8427 122.384 59.928C122.299 60.0133 122.171 60.1413 122 60.312L122.384 61.336ZM154 59.288C154 58.9467 154.341 58.4347 155.024 57.752H155.152C155.152 57.8373 155.195 57.88 155.28 57.88C155.365 57.88 155.664 57.5387 156.176 56.856C156.688 56.088 156.987 55.704 157.072 55.704C157.328 55.704 157.627 55.832 157.968 56.088V57.24C157.797 57.3253 157.584 57.5387 157.328 57.88C157.072 58.136 156.901 58.264 156.816 58.264C156.56 58.264 156.304 58.136 156.048 57.88C155.963 57.88 155.792 58.136 155.536 58.648L154.384 59.288H154ZM148.88 64.28C148.88 64.1093 148.709 63.9813 148.368 63.896C148.965 63.5547 149.861 62.7013 151.056 61.336C151.397 61.4213 151.696 61.1653 151.952 60.568C152.208 59.9707 152.507 59.6293 152.848 59.544H153.488L153.744 59.8C153.659 60.056 153.531 60.3547 153.36 60.696C153.189 61.0373 152.976 61.4213 152.72 61.848H152.592C152.336 61.848 152.037 62.0187 151.696 62.36C151.44 62.616 151.312 62.8293 151.312 63C151.312 63.0853 151.141 63.2133 150.8 63.384C150.459 63.4693 149.989 63.768 149.392 64.28H148.88ZM147.344 65.56V64.408C147.515 64.4933 147.643 64.5787 147.728 64.664C147.813 64.664 147.856 64.664 147.856 64.664C148.027 64.664 148.112 64.5787 148.112 64.408C148.283 64.5787 148.539 64.664 148.88 64.664C148.368 65.2613 147.856 65.56 147.344 65.56ZM148.98 80.152C148.895 80.0667 148.767 79.9387 148.596 79.768C148.511 79.5973 148.425 79.512 148.34 79.512H148.212C148.212 79.5973 148.169 79.64 148.084 79.64C147.913 79.64 147.743 79.256 147.572 78.488C147.487 78.4027 147.188 78.2747 146.676 78.104C146.42 77.1653 146.121 76.6533 145.78 76.568V73.112L146.804 71.96C146.889 71.8747 146.847 71.576 146.676 71.064C146.761 70.8933 146.847 70.7227 146.932 70.552C147.017 70.3813 147.145 70.2107 147.316 70.04C147.316 69.784 147.273 69.4853 147.188 69.144C147.359 68.632 147.615 68.248 147.956 67.992C147.956 67.48 148.127 67.0107 148.468 66.584C148.639 66.584 149.108 66.072 149.876 65.048L151.156 63.128C151.412 62.9573 151.924 62.488 152.692 61.72V61.208C152.948 61.0373 153.204 60.7813 153.46 60.44C154.057 60.3547 154.484 60.0987 154.74 59.672C154.74 59.5867 154.74 59.4587 154.74 59.288C154.74 59.1173 154.783 58.9467 154.868 58.776C155.039 58.6907 155.209 58.648 155.38 58.648C155.551 58.648 155.764 58.6053 156.02 58.52C156.191 58.008 156.404 57.6667 156.66 57.496C157.769 57.4107 158.58 56.8133 159.092 55.704C159.177 55.704 159.348 55.6187 159.604 55.448C159.945 55.192 160.159 55.064 160.244 55.064C160.159 55.1493 160.287 55.2347 160.628 55.32C160.799 55.1493 160.884 55.0213 160.884 54.936C161.311 54.68 161.695 54.552 162.036 54.552C162.463 54.04 162.676 53.784 162.676 53.784C162.761 53.784 162.804 53.8267 162.804 53.912C162.889 53.9973 162.975 54.04 163.06 54.04C163.231 54.04 163.529 53.9547 163.956 53.784C164.468 53.528 164.809 53.4 164.98 53.4H165.108C165.023 53.4853 165.065 53.528 165.236 53.528C165.321 53.528 165.407 53.4853 165.492 53.4C165.663 53.2293 165.791 53.144 165.876 53.144C166.047 53.144 166.217 53.2293 166.388 53.4C166.559 53.4853 166.687 53.528 166.772 53.528C166.857 53.528 166.9 53.4853 166.9 53.4C166.985 53.3147 167.113 53.272 167.284 53.272C167.113 53.272 167.241 53.3573 167.668 53.528C167.753 53.1867 167.967 53.016 168.308 53.016C168.479 53.016 168.564 53.1013 168.564 53.272C168.649 53.3573 168.777 53.4 168.948 53.4C169.033 53.4 169.076 53.3573 169.076 53.272H169.332C169.503 53.272 169.844 53.6133 170.356 54.296C170.527 54.1253 170.612 54.04 170.612 54.04C171.209 54.4667 171.551 54.808 171.636 55.064V56.344L171.38 56.088C170.868 56.2587 170.356 56.344 169.844 56.344C169.759 56.344 169.673 56.3013 169.588 56.216C169.588 56.1307 169.503 56.088 169.332 56.088C169.247 56.088 169.119 56.1307 168.948 56.216C168.863 56.3013 168.777 56.344 168.692 56.344C168.521 56.344 168.351 56.3013 168.18 56.216C168.095 56.1307 168.009 56.088 167.924 56.088C167.839 56.088 167.796 56.1307 167.796 56.216C167.796 56.3013 167.711 56.344 167.54 56.344H167.412C167.497 56.2587 167.455 56.216 167.284 56.216C167.199 56.216 166.687 56.4293 165.748 56.856C164.895 57.2827 164.425 57.496 164.34 57.496C164.255 57.496 164.127 57.368 163.956 57.112L161.396 58.264L160.5 58.008C160.415 58.008 160.201 58.1787 159.86 58.52C159.519 58.8613 159.263 59.032 159.092 59.032C159.007 59.032 158.964 58.9893 158.964 58.904H158.836C158.495 58.904 158.153 59.1173 157.812 59.544C157.556 59.8853 157.129 60.1413 156.532 60.312C156.447 60.3973 156.447 60.568 156.532 60.824C156.105 61.7627 155.551 62.36 154.868 62.616C154.783 62.7013 154.74 62.872 154.74 63.128H153.844C153.759 63.2133 153.716 63.512 153.716 64.024C153.716 64.024 153.631 64.024 153.46 64.024C153.375 64.024 153.247 63.9813 153.076 63.896C152.82 64.3227 152.777 64.7493 152.948 65.176H151.668C151.497 65.5173 151.284 65.944 151.028 66.456C150.772 66.8827 150.516 67.4373 150.26 68.12C150.175 68.376 150.004 68.7173 149.748 69.144C149.577 69.4853 149.407 69.912 149.236 70.424C148.724 71.0213 148.297 71.7467 147.956 72.6V73.752C147.956 73.8373 147.913 74.008 147.828 74.264C147.743 74.52 147.7 74.7333 147.7 74.904C148.127 75.3307 148.553 75.544 148.98 75.544C149.236 75.544 149.535 75.5013 149.876 75.416C150.303 75.2453 150.687 74.8187 151.028 74.136L151.412 74.392C152.095 74.136 152.863 73.6667 153.716 72.984C153.801 72.8987 154.015 72.8133 154.356 72.728C154.697 72.6427 154.868 72.4293 154.868 72.088C154.953 72.088 155.039 72.1307 155.124 72.216L155.636 71.32C156.575 71.1493 157.087 70.6373 157.172 69.784C157.343 69.784 157.471 69.8267 157.556 69.912L158.452 69.144C158.452 68.9733 158.495 68.8027 158.58 68.632C158.665 68.632 158.751 68.632 158.836 68.632C158.921 68.5467 159.049 68.4613 159.22 68.376L159.988 66.968C160.244 66.712 160.671 66.5413 161.268 66.456C161.524 66.2853 161.737 66.072 161.908 65.816C162.164 65.56 162.377 65.3467 162.548 65.176C162.463 65.0053 162.377 64.8347 162.292 64.664C162.207 64.4933 162.079 64.3227 161.908 64.152C161.737 63.896 161.823 63.6827 162.164 63.512C161.993 63.5973 161.908 63.512 161.908 63.256V62.488C162.164 62.3173 162.463 62.1467 162.804 61.976C163.231 61.8053 163.657 61.5493 164.084 61.208C164.425 61.0373 164.639 60.952 164.724 60.952C164.468 60.952 164.553 61.0373 164.98 61.208C165.151 60.7813 165.364 60.312 165.62 59.8C165.876 59.288 166.132 58.6907 166.388 58.008L167.412 57.496C167.412 57.496 167.497 57.752 167.668 58.264C166.985 59.2027 166.644 59.928 166.644 60.44C166.644 60.696 167.071 60.952 167.924 61.208C167.924 61.208 167.924 61.2507 167.924 61.336C167.924 61.336 167.881 61.3787 167.796 61.464C168.137 61.72 168.393 61.976 168.564 62.232C168.82 62.488 168.991 62.7013 169.076 62.872C168.479 63.7253 168.18 64.536 168.18 65.304L168.436 65.56C168.351 65.6453 168.308 65.9867 168.308 66.584C168.393 67.096 168.479 67.6507 168.564 68.248C168.735 68.76 168.905 69.3573 169.076 70.04L169.972 71.32V71.704C169.972 72.8987 170.399 73.9227 171.252 74.776L171.636 74.52V74.904C172.148 75.0747 172.703 75.4587 173.3 76.056H174.708C174.964 76.3973 175.22 76.568 175.476 76.568C176.841 76.568 177.524 76.2267 177.524 75.544C177.524 75.544 177.609 75.6293 177.78 75.8C178.719 75.3733 180.127 73.9653 182.004 71.576C183.284 70.04 184.009 69.3147 184.18 69.4L184.692 69.528V70.04L184.82 70.168C184.82 70.168 184.479 70.6373 183.796 71.576C183.796 71.9173 183.455 72.344 182.772 72.856C182.943 72.9413 182.943 73.0693 182.772 73.24L182.004 73.752L182.26 74.136C181.407 74.392 180.724 74.7333 180.212 75.16C179.7 75.5867 179.487 75.8853 179.572 76.056C179.401 76.056 179.103 76.312 178.676 76.824C178.335 76.824 178.164 76.9947 178.164 77.336C177.993 77.1653 177.908 77.08 177.908 77.08L177.524 77.336C177.524 77.336 177.439 77.3787 177.268 77.464C177.183 77.5493 177.055 77.6773 176.884 77.848C176.799 77.848 176.671 77.848 176.5 77.848C176.329 77.848 176.159 77.8907 175.988 77.976L175.732 78.36H175.092C175.007 78.2747 174.921 78.232 174.836 78.232C174.068 78.232 173.471 78.4453 173.044 78.872V78.36H171.38V77.848C171.209 78.0187 171.081 78.104 170.996 78.104C170.825 78.104 170.569 77.976 170.228 77.72C169.972 77.3787 169.673 77.2507 169.332 77.336C168.905 76.6533 168.393 75.9707 167.796 75.288C167.284 74.52 166.943 74.2213 166.772 74.392C166.772 74.3067 166.815 74.2213 166.9 74.136C166.644 73.88 166.473 73.496 166.388 72.984C165.791 72.3013 164.639 70.2107 162.932 66.712C162.591 67.0533 162.164 67.5227 161.652 68.12C161.14 68.7173 160.543 69.3573 159.86 70.04C159.775 70.2107 159.689 70.424 159.604 70.68C159.519 70.8507 159.433 71.1067 159.348 71.448L158.452 71.96C158.452 72.1307 158.409 72.344 158.324 72.6C158.324 72.7707 158.281 73.0267 158.196 73.368C158.111 73.368 157.855 73.5387 157.428 73.88C157.087 74.2213 156.745 74.392 156.404 74.392C156.319 74.392 156.191 74.3067 156.02 74.136C155.849 74.3067 155.636 74.5627 155.38 74.904C155.124 75.16 154.825 75.5013 154.484 75.928C154.569 76.0133 154.825 76.056 155.252 76.056V76.568C155.252 76.6533 154.996 76.952 154.484 77.464L154.74 77.72C154.484 77.8907 153.929 78.4027 153.076 79.256C152.991 79.256 152.82 79.256 152.564 79.256C152.393 79.256 152.18 79.2987 151.924 79.384C150.815 79.8107 150.473 80.024 150.9 80.024C150.644 80.024 150.345 79.9813 150.004 79.896H149.236C149.065 79.896 148.98 79.9813 148.98 80.152ZM190.296 82.84C187.651 80.8773 186.157 78.36 185.816 75.288C185.731 75.2027 185.645 75.1173 185.56 75.032C185.56 74.9467 185.475 74.8613 185.304 74.776C185.304 74.4347 185.261 74.0933 185.176 73.752C185.176 73.4107 185.133 73.0693 185.048 72.728C184.707 71.448 184.451 69.272 184.28 66.2C184.28 66.1147 184.237 65.9013 184.152 65.56C184.067 65.1333 184.024 64.8347 184.024 64.664L184.152 64.536C184.323 64.1093 184.28 63.8107 184.024 63.64L184.536 63C184.536 63 184.451 62.9147 184.28 62.744C184.536 62.0613 184.664 61.4213 184.664 60.824C184.664 60.6533 184.536 60.4827 184.28 60.312C184.109 60.056 184.024 59.928 184.024 59.928C183.853 59.928 183.768 60.0133 183.768 60.184C183.427 59.8427 183 59.672 182.488 59.672C182.403 59.672 182.275 59.7147 182.104 59.8C181.933 59.8853 181.805 59.928 181.72 59.928C181.635 59.928 181.507 59.8853 181.336 59.8C181.165 59.7147 181.037 59.672 180.952 59.672C180.867 59.672 180.824 59.7147 180.824 59.8C180.824 59.8853 180.781 59.928 180.696 59.928C180.525 59.928 180.269 59.6293 179.928 59.032C179.501 59.3733 179.117 59.544 178.776 59.544C178.52 59.544 177.923 59.2453 176.984 58.648C177.155 58.392 177.411 58.264 177.752 58.264C178.093 58.264 178.349 58.3493 178.52 58.52L178.904 58.008C179.416 58.52 179.8 58.776 180.056 58.776C180.227 58.776 180.483 58.6053 180.824 58.264H181.208V58.904H184.92L185.56 57.624C185.389 57.2827 185.304 57.0267 185.304 56.856C185.304 56.2587 185.56 55.4907 186.072 54.552C186.584 53.528 186.84 52.76 186.84 52.248C187.352 51.9067 187.565 51.5653 187.48 51.224C187.48 51.224 187.395 50.968 187.224 50.456C187.48 50.2 187.608 49.944 187.608 49.688L187.864 49.944C187.864 49.944 187.949 49.6453 188.12 49.048L188.76 48.152C188.76 47.64 189.016 47.128 189.528 46.616C189.613 46.1893 189.741 45.72 189.912 45.208C190.083 44.6107 190.381 44.0133 190.808 43.416L192.856 40.472C192.856 40.3867 192.771 40.2587 192.6 40.088C193.027 38.7227 193.539 37.784 194.136 37.272L195.544 36.12V35.736C196.227 35.0533 196.611 34.584 196.696 34.328C196.867 33.9867 197.123 33.6027 197.464 33.176C197.805 32.664 198.488 31.896 199.512 30.872C199.683 30.7867 199.896 30.6587 200.152 30.488C200.493 30.232 200.835 29.9333 201.176 29.592L201.432 28.696C201.859 28.5253 202.243 28.2693 202.584 27.928C202.84 27.5867 203.736 26.648 205.272 25.112C205.272 25.112 205.315 25.112 205.4 25.112C205.485 25.112 205.571 25.0693 205.656 24.984C206.168 24.3013 206.936 23.7893 207.96 23.448C207.96 23.448 208.045 23.3627 208.216 23.192C208.472 23.0213 208.728 22.6373 208.984 22.04C209.752 21.6987 210.136 21.528 210.136 21.528H210.392C210.392 21.6133 210.435 21.656 210.52 21.656C210.435 21.656 210.691 21.272 211.288 20.504C212.141 20.0773 212.781 19.864 213.208 19.864C213.549 19.608 213.976 19.3093 214.488 18.968C215 18.5413 215.555 18.0293 216.152 17.432C216.237 17.432 216.365 17.432 216.536 17.432C216.707 17.432 216.877 17.3893 217.048 17.304C217.133 17.1333 217.475 16.8347 218.072 16.408C218.243 16.408 218.499 16.3653 218.84 16.28C219.267 16.1947 219.907 15.9387 220.76 15.512C221.699 15 222.211 14.744 222.296 14.744H222.424C222.339 14.8293 222.381 14.872 222.552 14.872C222.637 14.872 222.68 14.7867 222.68 14.616H223.832L224.216 14.104C224.899 14.0187 225.453 13.976 225.88 13.976C226.307 13.976 226.691 13.9333 227.032 13.848C227.288 13.7627 227.629 13.6347 228.056 13.464C228.483 13.208 228.739 13.08 228.824 13.08C228.909 13.08 228.952 13.1227 228.952 13.208C228.952 13.2933 228.995 13.336 229.08 13.336C229.165 13.336 229.549 13.2507 230.232 13.08C230.915 12.9093 231.341 12.824 231.512 12.824C231.597 12.824 231.683 12.8667 231.768 12.952C231.853 13.0373 231.981 13.08 232.152 13.08C232.237 13.08 232.323 13.0373 232.408 12.952C232.493 12.8667 232.579 12.824 232.664 12.824C232.835 12.824 232.963 12.8667 233.048 12.952C233.219 13.0373 233.347 13.08 233.432 13.08C233.517 13.08 233.603 13.0373 233.688 12.952H233.944C234.115 12.952 234.285 13.0373 234.456 13.208C234.712 13.2933 234.925 13.336 235.096 13.336C235.352 13.336 235.395 13.2507 235.224 13.08C235.821 13.08 236.419 13.208 237.016 13.464C237.699 13.72 238.04 13.848 238.04 13.848C237.955 13.7627 238.083 13.6773 238.424 13.592C238.851 14.0187 239.107 14.232 239.192 14.232C239.277 14.232 239.363 14.1893 239.448 14.104C239.533 14.0187 239.619 13.976 239.704 13.976L240.088 14.36H240.984C241.069 14.7013 241.155 14.872 241.24 14.872H242.264C242.179 15.384 242.307 15.64 242.648 15.64C242.819 15.64 242.861 15.5973 242.776 15.512H242.904C243.075 15.512 243.245 15.6827 243.416 16.024C243.587 16.28 243.715 16.408 243.8 16.408C243.8 16.3227 244.013 16.2373 244.44 16.152L244.952 16.792C245.72 16.8773 246.232 17.3893 246.488 18.328C246.744 19.1813 247 19.6507 247.256 19.736C247.256 20.9307 247.555 21.5707 248.152 21.656V22.936C247.981 23.1067 247.896 23.3627 247.896 23.704C247.384 23.704 247.043 23.064 246.872 21.784L246.104 21.4C246.104 21.0587 245.72 20.0773 244.952 18.456C243.587 18.2 242.861 17.7733 242.776 17.176C242.605 17.2613 242.435 17.304 242.264 17.304H242.136C242.136 17.304 242.179 17.304 242.264 17.304C242.264 17.1333 241.88 17.0053 241.112 16.92C240.515 16.664 239.789 16.536 238.936 16.536C238.851 16.536 238.637 16.664 238.296 16.92C238.04 17.176 237.869 17.304 237.784 17.304H237.016V16.92C236.845 16.7493 236.717 16.664 236.632 16.664C236.547 16.664 236.504 16.7067 236.504 16.792C236.504 16.8773 236.461 16.92 236.376 16.92C236.205 16.92 235.907 16.8347 235.48 16.664C235.139 16.408 234.925 16.28 234.84 16.28L233.048 16.408L231.896 17.688C231.811 17.688 231.683 17.6453 231.512 17.56C231.341 17.3893 231.213 17.304 231.128 17.304C231.213 17.3893 231.085 17.4747 230.744 17.56L229.976 16.792C229.037 17.6453 228.397 18.072 228.056 18.072H227.928C227.928 17.9867 227.885 17.944 227.8 17.944C227.715 17.944 227.459 18.2 227.032 18.712C226.605 19.1387 226.008 19.352 225.24 19.352C224.728 19.352 224.259 19.1387 223.832 18.712L221.016 21.912C220.931 21.9973 220.76 22.04 220.504 22.04C220.419 22.04 220.376 21.9973 220.376 21.912H220.248C220.163 21.912 220.035 21.9973 219.864 22.168C219.779 22.2533 219.523 22.296 219.096 22.296C219.011 22.296 218.883 22.424 218.712 22.68C218.541 22.8507 218.413 22.936 218.328 22.936C218.243 22.936 218.2 22.8933 218.2 22.808H217.944C217.859 22.808 217.56 22.9787 217.048 23.32C216.536 23.6613 216.237 23.832 216.152 23.832H215.64C215.64 24.088 215.597 24.3013 215.512 24.472L214.232 25.496V26.264C213.379 26.8613 212.696 27.16 212.184 27.16H212.056C212.056 27.0747 212.013 27.032 211.928 27.032C211.587 27.032 210.819 27.6293 209.624 28.824V29.08C209.624 29.1653 209.453 29.336 209.112 29.592C208.856 29.848 208.003 30.36 206.552 31.128C206.467 31.2987 206.211 31.4693 205.784 31.64C205.443 31.8107 205.059 32.1093 204.632 32.536C204.205 32.536 203.693 32.9627 203.096 33.816C203.011 34.072 202.627 34.2853 201.944 34.456C201.517 34.7973 201.048 35.2667 200.536 35.864C200.024 36.376 199.512 36.9733 199 37.656C198.829 38.3387 198.275 38.936 197.336 39.448C197.336 39.5333 197.293 39.576 197.208 39.576C197.123 39.576 196.739 39.9173 196.056 40.6C195.8 40.9413 195.629 41.3253 195.544 41.752C195.544 42.0933 195.501 42.3493 195.416 42.52C195.416 42.6053 195.331 42.9467 195.16 43.544C194.989 44.1413 194.605 44.4827 194.008 44.568L193.496 45.336C192.643 45.848 192.131 46.488 191.96 47.256C191.704 47.256 191.448 47.5973 191.192 48.28C191.192 48.3653 191.277 48.4933 191.448 48.664C191.363 49.0053 191.064 49.2187 190.552 49.304C190.552 49.304 190.637 49.56 190.808 50.072C190.723 50.2427 190.637 50.4987 190.552 50.84C190.467 51.096 190.339 51.4373 190.168 51.864C190.168 51.864 190.168 51.9493 190.168 52.12C190.168 52.2907 190.125 52.5467 190.04 52.888L189.272 53.528C189.272 53.784 188.888 54.6373 188.12 56.088C188.205 56.4293 188.291 56.5573 188.376 56.472L187.864 57.496V58.264C188.547 58.008 189.059 57.88 189.4 57.88C190.68 57.88 191.277 57.8373 191.192 57.752L192.088 58.008H192.728L195.032 56.984C195.459 56.6427 195.672 56.472 195.672 56.472C195.928 56.472 196.184 56.216 196.44 55.704C197.037 54.5947 197.72 53.5707 198.488 52.632V51.992C198.744 51.736 199 51.224 199.256 50.456L199.896 49.944C199.896 49.688 200.024 49.304 200.28 48.792C200.28 48.7067 201.091 48.024 202.712 46.744L203.224 45.72C203.565 45.6347 203.907 45.2933 204.248 44.696C204.248 44.696 204.333 44.7813 204.504 44.952C205.613 44.2693 206.083 43.928 205.912 43.928C205.997 43.928 206.253 44.0133 206.68 44.184C207.107 44.3547 207.363 44.44 207.448 44.44C207.533 44.44 207.619 44.3973 207.704 44.312C207.875 44.2267 208.045 44.184 208.216 44.184C209.24 44.184 210.051 45.208 210.648 47.256L211.16 50.072C211.245 50.328 211.288 50.84 211.288 51.608C211.629 51.9493 212.056 52.12 212.568 52.12H212.952C213.208 51.7787 213.677 51.5227 214.36 51.352C214.445 51.352 214.573 51.2667 214.744 51.096C215 50.84 215.171 50.712 215.256 50.712C215.341 50.712 215.384 50.7547 215.384 50.84H215.64C215.725 50.84 215.768 50.7973 215.768 50.712C215.768 50.6267 215.939 50.5413 216.28 50.456C216.536 50.456 216.792 50.4133 217.048 50.328C217.816 49.9867 218.2 49.816 218.2 49.816H218.328C218.413 49.9013 218.499 49.944 218.584 49.944C218.669 49.944 219.011 49.7307 219.608 49.304C220.291 48.792 220.675 48.536 220.76 48.536H220.888C220.888 48.6213 220.931 48.664 221.016 48.664L223.704 46.744C225.325 45.8907 226.349 45.464 226.776 45.464C226.776 45.464 226.861 45.5493 227.032 45.72C227.203 45.8053 227.331 45.848 227.416 45.848C227.501 45.848 227.8 45.6773 228.312 45.336C228.824 44.9093 229.165 44.6533 229.336 44.568C230.531 44.056 231.043 43.7147 230.872 43.544C231.469 43.6293 232.707 42.8613 234.584 41.24C236.547 39.5333 237.571 38.68 237.656 38.68C237.741 38.68 237.784 38.7227 237.784 38.808C237.869 38.8933 237.955 38.936 238.04 38.936C238.211 38.936 238.893 38.2107 240.088 36.76C240.429 36.6747 240.813 36.504 241.24 36.248C241.667 35.9067 242.221 35.224 242.904 34.2L243.8 33.432C243.8 33.176 243.843 32.92 243.928 32.664C244.013 32.664 244.141 32.5787 244.312 32.408V31.768C244.483 31.768 244.653 31.6827 244.824 31.512C245.507 30.744 246.019 29.6773 246.36 28.312C246.445 28.2267 246.531 28.1413 246.616 28.056C246.787 27.9707 246.915 27.8427 247 27.672C247 27.2453 246.957 26.904 246.872 26.648C247.213 26.4773 247.384 26.0507 247.384 25.368C247.384 24.6853 247.555 24.2587 247.896 24.088H248.408L248.664 25.24C248.664 25.3253 248.621 25.4107 248.536 25.496V25.624L247.768 27.544C247.512 27.8 247.341 28.056 247.256 28.312C247.256 28.4827 247.384 28.568 247.64 28.568C247.555 28.9947 247.469 29.208 247.384 29.208C247.299 29.208 247.128 29.3787 246.872 29.72C246.701 30.0613 246.275 31 245.592 32.536C245.507 32.8773 245.336 33.176 245.08 33.432C244.909 33.688 244.739 33.9867 244.568 34.328C244.483 34.4133 244.227 34.6267 243.8 34.968C243.373 35.3093 243.203 35.608 243.288 35.864C243.032 36.0347 242.733 36.3333 242.392 36.76C242.051 37.1013 241.667 37.4853 241.24 37.912C241.155 37.912 241.027 37.8267 240.856 37.656C240.259 37.7413 239.96 38.168 239.96 38.936C239.875 38.936 239.789 38.8933 239.704 38.808C239.619 38.9787 239.277 39.4053 238.68 40.088C238.083 40.7707 237.613 41.112 237.272 41.112C237.101 41.0267 236.973 40.984 236.888 40.984C236.803 41.24 236.419 41.7093 235.736 42.392L233.816 43.288C233.731 43.288 233.688 43.3733 233.688 43.544C233.176 43.6293 232.365 43.8853 231.256 44.312C231.171 44.6533 230.275 45.1227 228.568 45.72C228.397 45.976 228.099 46.3173 227.672 46.744C227.331 47.0853 226.819 47.256 226.136 47.256C226.051 47.256 225.965 47.2133 225.88 47.128H225.496C224.899 47.384 224.472 47.768 224.216 48.28C224.045 48.7067 223.235 49.048 221.784 49.304C221.016 50.072 220.504 50.456 220.248 50.456C220.163 50.456 220.12 50.4133 220.12 50.328H219.992C220.077 50.328 219.651 50.584 218.712 51.096C218.456 51.096 218.2 51.1387 217.944 51.224C216.493 51.8213 215.811 52.12 215.896 52.12C215.811 52.12 215.768 52.0773 215.768 51.992C215.853 51.9067 215.811 51.864 215.64 51.864C215.555 51.864 215.256 52.0347 214.744 52.376C214.317 52.632 214.061 52.76 213.976 52.76H213.848C213.848 52.6747 213.805 52.632 213.72 52.632C213.379 52.632 212.995 52.888 212.568 53.4C212.141 53.8267 211.928 54.0827 211.928 54.168C211.501 54.168 211.245 53.9973 211.16 53.656C210.477 54.0827 210.093 54.5093 210.008 54.936C209.923 55.2773 209.837 55.6613 209.752 56.088C209.496 56.6853 209.197 57.3253 208.856 58.008C208.515 58.6053 208.003 59.2453 207.32 59.928L204.888 62.36C204.12 62.616 203.608 63.0853 203.352 63.768L201.688 65.048C201.688 65.048 201.603 64.9627 201.432 64.792C200.323 65.56 199.768 65.944 199.768 65.944C199.683 65.8587 199.597 65.816 199.512 65.816L198.488 66.968C198.488 67.3947 202.413 68.7173 210.264 70.936C210.52 71.0213 210.947 71.1493 211.544 71.32C212.227 71.4907 213.293 71.576 214.744 71.576C215.256 71.7467 215.384 71.832 215.128 71.832C215.299 71.832 215.384 71.7893 215.384 71.704C215.896 71.704 216.451 71.576 217.048 71.32C217.219 71.32 217.304 71.3627 217.304 71.448C217.304 71.5333 217.347 71.576 217.432 71.576H217.688L218.456 71.32V71.448C220.077 71.1067 221.016 70.5947 221.272 69.912C221.357 69.5707 221.528 69.4427 221.784 69.528C221.955 69.8693 221.997 70.168 221.912 70.424C221.485 71.704 220.547 72.3867 219.096 72.472L218.456 72.856C217.688 73.112 217.304 73.2827 217.304 73.368C217.389 73.368 217.432 73.368 217.432 73.368C217.432 73.368 217.389 73.368 217.304 73.368C217.219 73.2827 217.091 73.24 216.92 73.24C216.749 73.1547 216.579 73.112 216.408 73.112C216.323 73.112 216.152 73.24 215.896 73.496C215.64 73.6667 215.341 73.752 215 73.752H214.36C214.189 73.8373 214.019 73.88 213.848 73.88L212.952 73.624C212.867 73.624 212.696 73.6667 212.44 73.752C212.269 73.8373 212.099 73.88 211.928 73.88C211.843 73.88 211.715 73.8373 211.544 73.752C211.373 73.6667 211.245 73.624 211.16 73.624C211.075 73.624 210.947 73.6667 210.776 73.752C210.691 73.8373 210.605 73.88 210.52 73.88C210.179 73.88 209.837 73.7093 209.496 73.368C209.155 73.7093 208.856 73.88 208.6 73.88C208.515 73.88 208.301 73.7947 207.96 73.624C207.704 73.4533 207.491 73.368 207.32 73.368C207.235 73.368 207.107 73.4107 206.936 73.496C206.851 73.5813 206.765 73.624 206.68 73.624C206.339 73.624 205.912 73.368 205.4 72.856C205.315 72.856 205.144 72.8133 204.888 72.728C204.632 72.6427 204.419 72.6 204.248 72.6C204.163 72.6 204.035 72.6427 203.864 72.728C203.779 72.8133 203.693 72.856 203.608 72.856C203.523 72.856 203.309 72.728 202.968 72.472C202.627 72.1307 202.413 71.96 202.328 71.96C202.243 71.96 202.157 72.0027 202.072 72.088H201.816C201.645 72.088 201.347 72.1307 200.92 72.216C200.493 72.3013 200.237 72.4293 200.152 72.6C200.067 72.088 199.853 71.832 199.512 71.832H197.72C197.549 71.832 197.379 71.7893 197.208 71.704C197.123 71.6187 196.739 71.4907 196.056 71.32C195.885 71.064 195.672 70.8507 195.416 70.68C195.245 69.7413 195.075 69.272 194.904 69.272C194.819 69.272 194.648 69.3147 194.392 69.4C194.221 69.4 193.923 69.4427 193.496 69.528C193.325 69.8693 193.069 70.3387 192.728 70.936C192.472 71.448 192.173 72.0453 191.832 72.728C191.747 72.8133 191.789 73.1547 191.96 73.752L191.576 74.264V74.52C191.576 75.032 191.32 75.416 190.808 75.672C190.808 75.672 190.851 75.8 190.936 76.056C191.021 76.312 191.149 76.696 191.32 77.208C191.491 77.6347 191.491 77.976 191.32 78.232C191.149 78.744 191.064 79 191.064 79C191.064 79.1707 191.149 79.256 191.32 79.256C191.491 79.3413 191.576 79.5973 191.576 80.024C191.576 80.1947 191.491 80.4507 191.32 80.792C191.235 81.1333 191.107 81.816 190.936 82.84H190.296ZM203.864 54.424H204.376C204.461 54.424 204.589 54.3813 204.76 54.296C205.016 54.1253 205.187 54.04 205.272 54.04C205.357 54.04 205.4 54.0827 205.4 54.168H205.656C205.656 54.168 205.997 53.9973 206.68 53.656L207.704 52.376C207.96 51.9493 208.088 51.608 208.088 51.352C208.088 51.0107 207.917 50.712 207.576 50.456C207.235 50.712 206.893 50.9253 206.552 51.096C206.211 51.2667 205.869 51.4373 205.528 51.608C205.187 51.7787 204.76 52.12 204.248 52.632C203.821 53.144 203.608 53.528 203.608 53.784C203.608 54.04 203.693 54.2533 203.864 54.424ZM194.904 66.328H195.544L196.824 65.688L197.592 64.536C197.763 64.536 198.36 64.28 199.384 63.768C200.493 63.256 201.048 62.9573 201.048 62.872C201.048 62.616 201.176 62.4453 201.432 62.36C201.688 62.1893 201.944 62.0187 202.2 61.848C202.456 61.592 202.669 61.2507 202.84 60.824C203.181 60.824 203.437 60.6107 203.608 60.184C203.779 59.672 204.077 59.0747 204.504 58.392L205.912 56.856C205.912 56.0027 205.869 55.6187 205.784 55.704C205.357 56.1307 205.059 56.344 204.888 56.344C204.205 56.344 203.864 56.344 203.864 56.344C203.779 56.5147 203.651 56.6 203.48 56.6C203.395 56.6 203.181 56.5573 202.84 56.472C202.584 56.3013 202.413 56.216 202.328 56.216C202.328 56.216 202.115 56.5573 201.688 57.24C201.091 57.24 200.707 57.4107 200.536 57.752C200.451 58.008 200.28 58.2213 200.024 58.392C199.939 58.904 199.683 59.16 199.256 59.16C199.171 59.16 199.085 59.1173 199 59.032C198.915 58.8613 198.829 58.776 198.744 58.776C198.488 58.776 198.317 58.8187 198.232 58.904C198.232 58.9893 198.232 59.0747 198.232 59.16C198.317 59.2453 198.317 59.672 198.232 60.44C198.232 60.44 198.232 60.4827 198.232 60.568C198.317 60.568 198.36 60.6107 198.36 60.696C198.36 60.952 198.147 61.2507 197.72 61.592C197.379 61.9333 197.208 62.1893 197.208 62.36C196.781 63.4693 196.397 63.9813 196.056 63.896L195.544 63.768C195.8 64.536 195.971 64.92 196.056 64.92C196.056 64.92 196.056 64.8773 196.056 64.792C196.056 64.8773 196.056 64.92 196.056 64.92C195.971 65.0907 195.885 65.2187 195.8 65.304C195.373 65.304 195.075 65.3893 194.904 65.56V66.328ZM189.784 80.024C189.784 79.768 189.827 79.384 189.912 78.872C189.997 78.2747 190.04 77.848 190.04 77.592L189.912 76.568C189.997 76.568 190.083 76.5253 190.168 76.44C190.509 76.0133 190.595 75.5867 190.424 75.16C190.424 75.0747 190.467 75.032 190.552 75.032C190.723 74.3493 190.637 73.88 190.296 73.624C190.552 73.1973 190.637 72.8987 190.552 72.728C190.467 72.6427 190.424 72.5573 190.424 72.472L190.936 71.576V70.808C190.936 70.808 191.021 70.7227 191.192 70.552C191.107 70.6373 191.064 70.424 191.064 69.912C191.32 69.7413 191.576 69.4853 191.832 69.144C191.747 68.9733 191.704 68.7173 191.704 68.376C191.704 68.0347 191.661 67.6933 191.576 67.352C191.832 67.0107 192.088 66.328 192.344 65.304C192.259 65.048 192.259 64.664 192.344 64.152C192.6 63.7253 192.941 63.512 193.368 63.512C193.368 62.8293 193.325 62.36 193.24 62.104L193.624 60.824C194.477 59.4587 194.904 58.9467 194.904 59.288C194.904 59.032 194.733 58.8613 194.392 58.776H194.008C193.923 58.776 193.709 58.8613 193.368 59.032C193.112 59.2027 192.941 59.288 192.856 59.288H191.448C190.595 59.288 190.083 59.3307 189.912 59.416C189.827 59.416 189.741 59.4587 189.656 59.544H189.4C189.315 59.544 189.272 59.544 189.272 59.544C189.357 59.4587 189.315 59.3733 189.144 59.288C188.376 59.544 187.907 59.672 187.736 59.672H187.48C187.395 60.0987 187.224 60.6533 186.968 61.336C186.712 62.0187 186.499 62.6587 186.328 63.256C186.499 63.4267 186.499 63.7253 186.328 64.152C186.584 64.408 186.584 64.7067 186.328 65.048V65.176C186.669 65.8587 186.84 66.4133 186.84 66.84C186.84 67.352 186.669 67.9067 186.328 68.504C186.243 68.5893 186.072 68.632 185.816 68.632V69.4L186.072 70.296V72.088C186.499 72.088 186.755 72.1307 186.84 72.216C186.755 72.5573 186.669 72.9413 186.584 73.368C186.584 73.7093 186.584 74.008 186.584 74.264C186.584 75.3733 186.925 76.1413 187.608 76.568C187.693 76.824 187.779 77.1227 187.864 77.464C188.035 77.72 188.333 77.9333 188.76 78.104C188.76 78.36 188.803 78.7013 188.888 79.128C188.973 79.5547 189.272 79.8533 189.784 80.024Z" fill="black"/>
</svg>
